<svg xmlns="http://www.w3.org/2000/svg" xml:space="preserve" width="358.716" height="400.688"><defs><linearGradient id="a" x1="0" x2="1" y1="0" y2="0" gradientTransform="matrix(0 -283.26892 -283.26892 0 200 282.54)" gradientUnits="userSpaceOnUse" spreadMethod="pad"><stop offset="0" style="stop-opacity:1;stop-color:#e54a13"/><stop offset=".004" style="stop-opacity:1;stop-color:#e54a13"/><stop offset="1" style="stop-opacity:1;stop-color:#910644"/></linearGradient><linearGradient id="b" x1="0" x2="1" y1="0" y2="0" gradientTransform="scale(283.26892) rotate(-90 .852 .145)" gradientUnits="userSpaceOnUse" spreadMethod="pad"><stop offset="0" style="stop-opacity:1;stop-color:#e54a13"/><stop offset=".004" style="stop-opacity:1;stop-color:#e54a13"/><stop offset="1" style="stop-opacity:1;stop-color:#910644"/></linearGradient><linearGradient id="d" x1="0" x2="1" y1="0" y2="0" gradientTransform="scale(55.0999 -55.0999) rotate(80.322 3.762 1.885)" gradientUnits="userSpaceOnUse" spreadMethod="pad"><stop offset="0" style="stop-opacity:1;stop-color:#ffda94"/><stop offset="1" style="stop-opacity:1;stop-color:#fa8e4c"/></linearGradient><linearGradient id="e" x1="0" x2="1" y1="0" y2="0" gradientTransform="scale(55.0999 -55.0999) rotate(80.322 4.073 2.148)" gradientUnits="userSpaceOnUse" spreadMethod="pad"><stop offset="0" style="stop-opacity:1;stop-color:#ffda94"/><stop offset="1" style="stop-opacity:1;stop-color:#fa8e4c"/></linearGradient><linearGradient id="f" x1="0" x2="1" y1="0" y2="0" gradientTransform="scale(47.0536 -47.0536) rotate(-89.615 .253 -1.638)" gradientUnits="userSpaceOnUse" spreadMethod="pad"><stop offset="0" style="stop-opacity:1;stop-color:#fff"/><stop offset="1" style="stop-opacity:1;stop-color:#101954"/></linearGradient><linearGradient id="g" x1="0" x2="1" y1="0" y2="0" gradientTransform="scale(47.0536 -47.0536) rotate(-89.615 .633 -2.016)" gradientUnits="userSpaceOnUse" spreadMethod="pad"><stop offset="0" style="stop-opacity:1;stop-color:#fff"/><stop offset="1" style="stop-opacity:1;stop-color:#101954"/></linearGradient><linearGradient id="h" x1="0" x2="1" y1="0" y2="0" gradientTransform="scale(47.0536 -47.0536) rotate(-89.615 .476 -1.86)" gradientUnits="userSpaceOnUse" spreadMethod="pad"><stop offset="0" style="stop-opacity:1;stop-color:#fff"/><stop offset="1" style="stop-opacity:1;stop-color:#101954"/></linearGradient><linearGradient id="i" x1="0" x2="1" y1="0" y2="0" gradientTransform="scale(47.0536 -47.0536) rotate(-89.615 .777 -2.159)" gradientUnits="userSpaceOnUse" spreadMethod="pad"><stop offset="0" style="stop-opacity:1;stop-color:#fff"/><stop offset="1" style="stop-opacity:1;stop-color:#101954"/></linearGradient><linearGradient id="j" x1="0" x2="1" y1="0" y2="0" gradientTransform="scale(69.35202 -69.35202) rotate(-89.615 .639 -1.547)" gradientUnits="userSpaceOnUse" spreadMethod="pad"><stop offset="0" style="stop-opacity:1;stop-color:#fff"/><stop offset="1" style="stop-opacity:1;stop-color:#101954"/></linearGradient><linearGradient id="k" x1="0" x2="1" y1="0" y2="0" gradientTransform="scale(69.35202 -69.35202) rotate(-89.615 .833 -1.74)" gradientUnits="userSpaceOnUse" spreadMethod="pad"><stop offset="0" style="stop-opacity:1;stop-color:#fff"/><stop offset="1" style="stop-opacity:1;stop-color:#101954"/></linearGradient><linearGradient id="l" x1="0" x2="1" y1="0" y2="0" gradientTransform="scale(69.35202 -69.35202) rotate(-89.615 .743 -1.65)" gradientUnits="userSpaceOnUse" spreadMethod="pad"><stop offset="0" style="stop-opacity:1;stop-color:#fff"/><stop offset="1" style="stop-opacity:1;stop-color:#101954"/></linearGradient><linearGradient id="m" x1="0" x2="1" y1="0" y2="0" gradientTransform="scale(47.0536 -47.0536) rotate(-89.615 1.427 -2.805)" gradientUnits="userSpaceOnUse" spreadMethod="pad"><stop offset="0" style="stop-opacity:1;stop-color:#fff"/><stop offset="1" style="stop-opacity:1;stop-color:#101954"/></linearGradient><linearGradient id="n" x1="0" x2="1" y1="0" y2="0" gradientTransform="scale(47.0536 -47.0536) rotate(-89.615 1.71 -3.086)" gradientUnits="userSpaceOnUse" spreadMethod="pad"><stop offset="0" style="stop-opacity:1;stop-color:#fff"/><stop offset="1" style="stop-opacity:1;stop-color:#101954"/></linearGradient><linearGradient id="o" x1="0" x2="1" y1="0" y2="0" gradientTransform="scale(47.0536 -47.0536) rotate(-89.615 1.94 -3.314)" gradientUnits="userSpaceOnUse" spreadMethod="pad"><stop offset="0" style="stop-opacity:1;stop-color:#fff"/><stop offset="1" style="stop-opacity:1;stop-color:#101954"/></linearGradient><linearGradient id="p" x1="0" x2="1" y1="0" y2="0" gradientTransform="scale(47.0536 -47.0536) rotate(-89.615 2.085 -3.458)" gradientUnits="userSpaceOnUse" spreadMethod="pad"><stop offset="0" style="stop-opacity:1;stop-color:#fff"/><stop offset="1" style="stop-opacity:1;stop-color:#101954"/></linearGradient><linearGradient id="q" x1="0" x2="1" y1="0" y2="0" gradientTransform="scale(-25.23239 25.23239) rotate(79.909 -7.253 -5.323)" gradientUnits="userSpaceOnUse" spreadMethod="pad"><stop offset="0" style="stop-opacity:1;stop-color:#fb904d"/><stop offset="1" style="stop-opacity:1;stop-color:#d54a29"/></linearGradient><linearGradient id="r" x1="0" x2="1" y1="0" y2="0" gradientTransform="scale(-25.23239 25.23239) rotate(79.909 -7.948 -5.905)" gradientUnits="userSpaceOnUse" spreadMethod="pad"><stop offset="0" style="stop-opacity:1;stop-color:#fb904d"/><stop offset="1" style="stop-opacity:1;stop-color:#d54a29"/></linearGradient><clipPath id="c" clipPathUnits="userSpaceOnUse"><path d="M0 400h400V0H0Z"/></clipPath></defs><path d="M306.753 137.395a552.252 552.252 0 0 0-15.563-2.868 13.921 13.921 0 0 1-5.166-1.979c-1.14.278-2.308.421-3.473.421-.725 0-1.453-.055-2.163-.16a546.678 546.678 0 0 0-14.685-1.983c-3.701-.449-7.012-2.246-9.384-5.082l-12.207-1.613-92.217 1.385-21.871 3.662-18.498 4.457c-1.06.455-2.161.781-3.282.973a549.654 549.654 0 0 0-14.73 2.718c-.932.186-1.888.279-2.842.279a14.795 14.795 0 0 1-14.33-11.126L65.931 85.666c-.973-3.789-.355-7.711 1.741-11.043a14.502 14.502 0 0 1 2.684-3.152l9.201-10.477 1.431-.398c1.588-.444 39.701-10.854 111.18-10.854 71.266 0 127.678 10.651 128.239 10.758l1.924.369 9.061 12.293c.389.477.706.914.987 1.362 2.045 3.249 2.65 7.074 1.703 10.761l-10.606 41.573a14.383 14.383 0 0 1-13.937 10.812c-.93 0-1.864-.092-2.786-.275" style="fill:url(#a);stroke:none" transform="matrix(1.33333 0 0 -1.33333 -87.309 467.01)"/><path d="M223.783 345.659c-2.081-3.327-7.536-9.622-10.487-12.81l-2.464-2.663.266-3.616c.577-7.909 1.995-13.7 4.298-17.485l-2.131-1.067c-.006-.002-.602-.223-2.193-.223-3.285 0-7.141.897-8.349 1.243l-2.301.657-2.298-.658c-1.207-.347-5.058-1.244-8.341-1.244-1.498 0-2.116.196-2.134.196l.001-.001-2.195 1.098c2.302 3.785 3.72 9.575 4.297 17.483l.266 3.617-2.465 2.665c-2.95 3.186-8.405 9.481-10.486 12.808l-2.875 4.599-5.376-.757c-.274-.04-27.548-4.054-51.214-18.457l-1.353-.825-.954-1.256c-.072-.097-7.418-9.815-16.24-26.324-8.062-15.086-19.132-39.241-26.09-68.643l-.239-1.008.015-1.028c.004-.378.644-38.158 13.334-70.134l.407-1.025.653-.877c.16-.215 16.172-21.694 32.666-38.185l1.208-1.207 1.274-.539c5.579-2.354 14.421-5.208 21.811-6.68.178-1.303.49-2.481.935-3.522l1.97-4.597 5.345-.465c1.456-.127 7.105-.616 12.445-1.063 3.394-.285 5.924-.496 7.691-.637v-.406l13.988-.486a18.758 18.758 0 0 1 5.15-.697c1.943 0 3.662.267 4.95.556a44 44 0 0 1 3.303-.133c1.706 0 3.19.121 4.492.372a22.39 22.39 0 0 1 4.542-.489c1.682 0 3.301.215 4.822.639l14.008.488v.393l26.072 1.84 2.008 4.68c.447 1.04.76 2.218.938 3.527 7.39 1.472 16.235 4.326 21.823 6.683l1.267.537 1.208 1.207c16.493 16.49 32.505 37.969 32.661 38.18l.657.881.407 1.025c12.69 31.976 13.329 69.756 13.333 70.128l.016 1.034-.239 1.005c-6.958 29.405-18.029 53.561-26.09 68.646-8.623 16.137-15.916 25.892-16.236 26.317l-.958 1.263-1.354.825c-23.666 14.403-50.94 18.417-51.222 18.457l-5.37.757zm8.239-33.515c0 2.905.247 5.508.512 7.463 1.071.445 2.393.923 3.775 1.364 3.147-1.452 7.101-3.801 9.523-5.294a470.04 470.04 0 0 0 2.384-10.056l-1.446.53c-2.454.901-5.168 1.357-8.065 1.357-2.111 0-4.353-.244-6.683-.725zm-77.004 3.533c2.423 1.493 6.377 3.842 9.524 5.294a49.251 49.251 0 0 0 3.775-1.364c.265-1.955.511-4.558.511-7.463v-5.362c-2.332.482-4.573.726-6.685.726-2.898 0-5.61-.456-8.061-1.356l-1.447-.53c.82 3.614 1.637 7.084 2.383 10.055m84.698-182.675c.156 2.156.601 4.275 1.28 5.982 1.452 3.661 3.217 4.012 3.882 4.147l2.48.495 1.787 1.788c6.179 6.179 17.12 17.816 20.978 26.311l.801 1.762-.056 1.933c-.09 3.115-.934 6.543-2.516 10.235l8.662 1.925a51.379 51.379 0 0 0 2.973-4.115c-5.264-18.375-10.457-32.984-11.876-36.901-4.866-7.384-13.953-14.248-19.154-17.814-3.1 1.051-6.661 2.848-9.241 4.252m-106.977 13.562c-1.419 3.917-6.608 18.518-11.876 36.901a51.488 51.488 0 0 0 2.973 4.115l8.661-1.925c-1.58-3.69-2.425-7.116-2.517-10.235l-.056-1.936.8-1.761c3.866-8.504 14.806-20.133 20.979-26.307l1.788-1.79 2.482-.497c.664-.133 2.429-.484 3.882-4.145.678-1.709 1.124-3.826 1.279-5.982-2.58-1.404-6.141-3.2-9.241-4.252-5.202 3.566-14.289 10.43-19.154 17.814" style="fill:url(#b);stroke:none" transform="matrix(1.33333 0 0 -1.33333 -87.309 467.01)"/><g clip-path="url(#c)" transform="matrix(1.33333 0 0 -1.33333 -87.309 467.01)"><path d="m0 0 41.793-10.065 91.585-.648 19.645 2.189-.575-6.344s-27.973-4.212-74.979-3.056c-47.006 1.157-74.664 7.666-74.664 7.666z" style="fill:#230616;fill-opacity:1;fill-rule:nonzero;stroke:none" transform="translate(107.404 129.678)"/><path d="M0 0c-.357 0-.699.011-1.018.032l-6.751.45 5.857 3.39c.183.107 18.294 10.682 26.199 23.149.977 2.674 6.955 19.249 12.787 39.91-1.123 1.877-3.565 5.697-6.578 8.871l-8.734-1.944.326 2.614-13.847-8.147-19.389 12.929-.357 1.117c-.099.312-9.959 31.496-11.269 61.665l-.098 2.244 2.04.942c.195.09 18.918 8.737 31.301 15.666-1.405 6.837-5.684 27.394-8.617 38.664-2.459 1.56-9.146 5.695-13.578 7.427-2.68-.765-6.582-2.105-8.599-3.328a61.492 61.492 0 0 1-.984-10.811v-5.42l-4.847 2.426c-1.857.928-5.117 4.474-6.09 17.785l-.106 1.451.989 1.067c2.212 2.39 8.509 9.481 11.055 13.556l1.154 1.845 2.154-.303c.263-.038 26.467-3.87 49.318-17.778l.543-.33.384-.507c.071-.093 7.212-9.56 15.812-25.653 7.922-14.824 18.798-38.559 25.633-67.441l.096-.403-.006-.413c-.005-.369-.638-37.252-12.982-68.356l-.163-.41-.263-.353c-.158-.212-15.996-21.444-32.185-37.631l-.521-.52-.371-.156C21.043 4.237 7.177 0 .001 0Z" style="fill:#230616;fill-opacity:1;fill-rule:nonzero;stroke:none" transform="translate(248.33 117.304)"/><path d="M0 0s-3.893 7.18-9.122 12.085l-5.884-1.309c.982 7.845-8.823 5.557-6.209.655l-11.113-6.538-16.667 11.113s-9.808 30.723-11.113 60.791c0 0 21.245 9.805 33.664 16.997 0 0-5.884 29.087-9.48 42.489 0 0-10.457 6.863-16.341 8.823 0 0-8.826-2.288-11.764-4.902 0 0-1.31-5.555-1.31-12.747 0 0-3.268 1.636-4.248 15.034 0 0 8.169 8.826 11.439 14.055 0 0 25.493-3.596 48.044-17.321 0 0 27.784-36.607 40.855-91.842 0 0-.489-36.279-12.746-67.165 0 0-15.687-21.083-31.867-37.261l-25.481-7.348c.521.258 17.286 8.551 25.973 22.547 0 0 6.842 18.489 13.37 41.844" style="fill:#910644;fill-opacity:1;fill-rule:nonzero;stroke:none" transform="translate(289.011 184.688)"/><path d="M0 0c12.257 30.886 12.746 67.165 12.746 67.165-13.071 55.235-40.854 91.842-40.854 91.842-22.552 13.725-48.045 17.322-48.045 17.322a41.517 41.517 0 0 0-1.818-2.634c15.894-4.347 31.464-11.082 46.547-17.497 11.925-18.998 19.782-41.197 24.07-63.213 1.471 2.287 3.451 4.598 4.921 6.886A116.367 116.367 0 0 0-7.59 60.058c-2.268-7.263-3.278-15.21-4.86-22.653-1.232-5.794-3.058-11.593-6.136-16.607.376-.638.581-1.016.581-1.016-6.528-23.355-13.37-41.844-13.37-41.844-8.687-13.996-25.452-22.289-25.973-22.546l25.481 7.347C-15.687-21.083 0 0 0 0" style="fill:#e54a13;fill-opacity:1;fill-rule:nonzero;stroke:none" transform="translate(307.016 164.905)"/><path d="M0 0c.301 6.727-.024 12.966-1.327 19.572C-6.784-2.67-16.422-23.875-29.548-42.641c-2.515-7.505-4.217-12.103-4.217-12.103-8.686-13.996-25.452-22.289-25.972-22.547l25.48 7.348C-18.076-53.766-2.39-32.683-2.39-32.683 9.867-1.797 10.356 34.482 10.356 34.482c-.825 3.488-1.709 6.9-2.641 10.235-.311.462-.624.92-.945 1.371C6.088 30.87 3.777 14.758 0 0" style="fill:#ffda94;fill-opacity:1;fill-rule:nonzero;stroke:none" transform="translate(309.406 197.588)"/><path d="M0 0c.979-13.398 4.248-15.035 4.248-15.035 0 7.193 1.31 12.747 1.31 12.747.092.083.192.165.296.248A33.192 33.192 0 0 0 7.301 8.434C3.835 4.143 0 0 0 0" style="fill:#ffda94;fill-opacity:1;fill-rule:nonzero;stroke:none" transform="translate(219.424 327.179)"/><path d="m0 0 2.101 1.236C-.514 6.139 9.291 8.426 8.31.582l5.883 1.309c.307-.288.608-.583.905-.885.446 21.398-2.276 43.34-7.152 63.974A183.56 183.56 0 0 1 0 0" style="fill:#e54a13;fill-opacity:1;fill-rule:nonzero;stroke:none" transform="translate(265.696 194.882)"/><path d="m0 0 12.313-8.21c.352 17.007.394 34.217.9 51.124A205.702 205.702 0 0 1-.621 2.038C-.229.719 0 0 0 0" style="fill:#e54a13;fill-opacity:1;fill-rule:nonzero;stroke:none" transform="translate(240.016 200.693)"/><path d="M0 0c-1.366-1.821-16.233-21.526-31.408-36.749l-15.659-4.516c5.722 3.932 13.022 9.996 17.921 17.89l.069.11.045.122c.068.186 6.935 18.806 13.402 41.945 4.957 17.734 8.387 33.403 10.196 46.573l.028.2-.035.199c-.084.473-8.575 47.669-26.586 84.181-2.939 3.001-10.219 7.676-14.082 8.327-6.592 3.707-14.495 7.076-20.662 6.444a27.03 27.03 0 0 1-1.957.751l-.361.12-.369-.096c-.372-.097-9.162-2.397-12.298-5.187l-.305-.27-.092-.397c-.043-.182-.843-3.625-1.188-8.597-.684 2.021-1.394 5.198-1.789 10.13 1.592 1.741 7.629 8.432 10.738 13.112 4.48-.747 26.757-4.92 46.536-16.89 1.036-1.401 7.534-10.354 15.302-24.9 7.768-14.544 18.428-37.808 25.144-66.109C12.533 63.775 11.561 29.247 0 0m-25.111 32.173-.496.466-4.929-1.097c-.193 2.841-1.86 3.971-2.665 4.354-1.82.864-4.144.439-5.527-1.01-.976-1.024-1.303-2.368-.95-3.75l-5.776-3.399c1.502 30.249 6.49 60.339 14.558 89.527C-18.59 88.141-14.098 55.663-18.64 24.427c-1.645 2.401-3.888 5.323-6.471 7.746m-42.204 12.82c2.503 21.231 9.248 39.354 23.688 55.539-4.993-39.142-6.103-67.719-6.308-74.452l-14.836 9.893c-.343 1.112-1.313 4.332-2.544 9.02m57.002 88.779c-8.529 15.962-15.565 25.287-15.634 25.379l-.149.195-.208.127c-22.518 13.705-48.277 17.461-48.535 17.497l-.828.117-.443-.71c-3.167-5.065-11.211-13.775-11.292-13.862l-.38-.411.041-.558c.982-13.448 4.301-15.765 4.956-16.093l1.864-.932v2.084c0 5.847.896 10.638 1.186 12.038 2.345 1.795 8.04 3.586 10.551 4.266 5.055-1.801 13.343-7.047 15.273-8.289 3.194-12.051 8.136-36.058 9.149-41.023-12.323-7.035-32.55-16.387-32.757-16.482l-.785-.362.038-.863c1.299-29.895 11.075-60.819 11.173-61.128l.138-.429 17.714-11.812 12.875 7.574-.582 1.091c-.416.78-.388 1.427.085 1.922.606.635 1.753.842 2.556.46.967-.459 1.376-1.696 1.153-3.483l-.227-1.814 6.995 1.555c4.048-3.973 7.238-9.287 8.131-10.844-6.121-21.817-12.55-39.477-13.148-41.109-8.218-13.144-27.028-24.02-27.028-24.02 6.128-.409 20.615 3.834 28.374 7.107l.236.234C-13.76-22.747 2.011-1.614 2.168-1.402l.102.135.062.159c12.203 30.75 12.832 67.256 12.837 67.622l.002.159-.036.155c-6.784 28.667-17.583 52.228-25.448 66.944" style="fill:#230616;fill-opacity:1;fill-rule:nonzero;stroke:none" transform="translate(305.881 165.54)"/><path d="M0 0c.356 0 .699.011 1.017.032l6.752.45-5.857 3.39c-.183.107-18.294 10.682-26.199 23.149-.977 2.674-6.956 19.249-12.788 39.91 1.124 1.877 3.566 5.697 6.578 8.871l8.735-1.944-.327 2.614 13.847-8.147 19.389 12.929.358 1.117c.099.312 9.958 31.496 11.268 61.665l.098 2.244-2.04.942c-.195.09-18.917 8.737-31.301 15.666 1.406 6.837 5.685 27.394 8.618 38.664 2.459 1.56 9.146 5.695 13.578 7.427 2.68-.765 6.582-2.105 8.598-3.328.355-1.915.985-5.998.985-10.811v-5.42l4.847 2.426c1.857.928 5.116 4.474 6.089 17.785l.107 1.451-.989 1.067c-2.212 2.39-8.509 9.481-11.055 13.556l-1.154 1.845-2.154-.303c-.264-.038-26.468-3.87-49.318-17.778l-.544-.33-.384-.507c-.07-.093-7.212-9.56-15.811-25.653-7.922-14.824-18.799-38.559-25.634-67.441l-.096-.403.006-.413c.005-.369.639-37.252 12.983-68.356l.163-.41.262-.353c.158-.212 15.997-21.444 32.186-37.631l.52-.52.372-.156C-21.044 4.237-7.177 0-.001 0Z" style="fill:#230616;fill-opacity:1;fill-rule:nonzero;stroke:none" transform="translate(152.52 117.304)"/><path d="M0 0s3.893 7.18 9.122 12.085l5.884-1.309c-.982 7.845 8.824 5.557 6.208.655l11.114-6.538 16.668 11.113s9.807 30.723 11.113 60.791c0 0-21.245 9.805-33.665 16.997 0 0 5.884 29.087 9.48 42.489 0 0 10.456 6.863 16.34 8.823 0 0 8.826-2.288 11.766-4.902 0 0 1.308-5.555 1.308-12.747 0 0 3.27 1.636 4.248 15.034 0 0-8.169 8.826-11.437 14.055 0 0-25.494-3.596-48.045-17.321 0 0-27.784-36.607-40.855-91.842 0 0 .489-36.279 12.747-67.165 0 0 15.686-21.083 31.866-37.261l25.48-7.348c-.519.258-17.285 8.551-25.972 22.547 0 0-6.842 18.489-13.37 41.844" style="fill:#910644;fill-opacity:1;fill-rule:nonzero;stroke:none" transform="translate(111.84 184.688)"/><path d="M0 0c-12.257 30.886-12.747 67.165-12.747 67.165C.325 122.4 28.108 159.007 28.108 159.007c22.551 13.725 48.045 17.322 48.045 17.322a41.064 41.064 0 0 1 1.817-2.634c-15.894-4.347-31.463-11.082-46.547-17.497-11.924-18.998-19.781-41.197-24.07-63.213-1.471 2.287-3.45 4.598-4.92 6.886A116.367 116.367 0 0 1 7.59 60.058c2.267-7.263 3.277-15.21 4.86-22.653 1.232-5.794 3.057-11.593 6.136-16.607-.376-.638-.582-1.016-.582-1.016 6.528-23.355 13.371-41.844 13.371-41.844 8.687-13.996 25.452-22.289 25.972-22.546l-25.48 7.347C15.686-21.083 0 0 0 0" style="fill:#e54a13;fill-opacity:1;fill-rule:nonzero;stroke:none" transform="translate(93.835 164.905)"/><path d="M0 0c-.3 6.727.024 12.966 1.328 19.572C6.784-2.67 16.422-23.875 29.548-42.641c2.515-7.505 4.217-12.103 4.217-12.103 8.687-13.996 25.452-22.289 25.972-22.547l-25.48 7.348C18.076-53.766 2.39-32.683 2.39-32.683-9.867-1.797-10.356 34.482-10.356 34.482c.825 3.488 1.709 6.9 2.641 10.235.31.462.624.92.945 1.371C-6.087 30.87-3.777 14.758 0 0" style="fill:#ffda94;fill-opacity:1;fill-rule:nonzero;stroke:none" transform="translate(91.445 197.588)"/><path d="M0 0c-.979-13.398-4.248-15.035-4.248-15.035 0 7.193-1.309 12.747-1.309 12.747a5.989 5.989 0 0 1-.297.248A33.191 33.191 0 0 1-7.3 8.434C-3.834 4.143 0 0 0 0" style="fill:#ffda94;fill-opacity:1;fill-rule:nonzero;stroke:none" transform="translate(181.426 327.179)"/><path d="m0 0-2.102 1.236C.514 6.139-9.291 8.426-8.31.582l-5.884 1.309a32.765 32.765 0 0 1-.905-.885c-.446 21.398 2.276 43.34 7.152 63.974A183.562 183.562 0 0 0 0 0" style="fill:#e54a13;fill-opacity:1;fill-rule:nonzero;stroke:none" transform="translate(135.156 194.882)"/><path d="m0 0-12.313-8.21c-.352 17.007-.394 34.217-.901 51.124A205.641 205.641 0 0 0 .621 2.038C.229.719 0 0 0 0" style="fill:#e54a13;fill-opacity:1;fill-rule:nonzero;stroke:none" transform="translate(160.835 200.693)"/><path d="M0 0c6.716 28.301 17.377 51.564 25.145 66.109 7.768 14.546 14.266 23.499 15.302 24.9 19.778 11.97 42.055 16.143 46.535 16.889 3.109-4.679 9.146-11.37 10.738-13.111-.394-4.933-1.104-8.109-1.789-10.13-.345 4.972-1.144 8.415-1.187 8.597l-.094.397-.303.27c-3.136 2.789-11.926 5.09-12.299 5.187l-.368.096-.363-.121a27.067 27.067 0 0 1-1.957-.75c-6.166.632-14.068-2.737-20.66-6.444-3.863-.651-11.143-5.326-14.083-8.327C26.606 47.05 18.116-.146 18.032-.619l-.035-.199.027-.201c1.809-13.169 5.24-28.838 10.196-46.572C34.687-70.73 41.554-89.35 41.623-89.536l.044-.122.069-.11c4.9-7.894 12.199-13.958 17.922-17.89l-15.659 4.516C28.824-87.919 13.957-68.214 12.59-66.393 1.03-37.146.057-2.618 0 0m31.23-41.966c-4.543 31.236-.05 63.714 12.256 92.837 8.069-29.188 13.056-59.278 14.559-89.527l-5.776 3.399c.352 1.382.026 2.726-.951 3.75-1.382 1.449-3.707 1.874-5.527 1.009-.805-.382-2.472-1.512-2.665-4.353l-4.928 1.097-.496-.466c-2.584-2.423-4.826-5.345-6.472-7.746M77.362-30.42l-14.837-9.893c-.204 6.732-1.314 35.31-6.307 74.452C70.657 17.954 77.401-.169 79.906-21.4c-1.231-4.688-2.202-7.908-2.544-9.02M-2.544.435-2.581.28l.002-.159c.005-.366.634-36.872 12.838-67.622l.062-.159.101-.135c.158-.212 15.929-21.345 31.99-37.404l.235-.234c7.76-3.274 22.247-7.516 28.374-7.108 0 0-18.809 10.877-27.027 24.021-.598 1.632-7.028 19.292-13.149 41.109.894 1.557 4.083 6.87 8.132 10.844l6.995-1.556-.227 1.815c-.224 1.787.185 3.024 1.151 3.483.805.382 1.952.175 2.558-.46.473-.495.501-1.142.085-1.923l-.582-1.09 12.874-7.574 17.715 11.811.137.43c.098.309 9.875 31.233 11.173 61.128l.038.863-.785.362c-.208.095-20.434 9.446-32.757 16.482 1.014 4.964 5.956 28.972 9.149 41.023 1.931 1.242 10.218 6.488 15.272 8.289 2.513-.681 8.206-2.471 10.553-4.266.29-1.4 1.185-6.191 1.185-12.038v-2.085l1.864.933c.655.328 3.974 2.645 4.957 16.093l.04.557-.38.412c-.081.087-8.124 8.797-11.291 13.862l-.443.71-.829-.117c-.257-.036-26.017-3.792-48.534-17.497l-.209-.127-.148-.195c-.07-.092-7.106-9.417-15.636-25.379C15.038 52.663 4.24 29.102-2.544.435" style="fill:#230616;fill-opacity:1;fill-rule:nonzero;stroke:none" transform="translate(82.38 231.932)"/><path d="M0 0c-1.539 0-2.988.226-4.313.67l-9.825.343v.175l-2.312.209c-1.574.115-4.74.372-9.958.811-5.62.472-11.58.988-12.632 1.079l-2.163.188-.789 1.845c-1.287 3.008-.483 7.776-.205 9.165l.404 2.032 1.999.544c5.031 1.372 11.455 4.917 14.346 6.599.164 3.7-.442 7.64-1.668 10.731-1.63 4.103-4.169 6.527-7.549 7.203l-.995.199-.717.717c-4.78 4.78-16.295 16.769-19.965 24.842l-.322.708.023.777c.137 4.669 2.44 10.36 6.843 16.915 2.704 4.026 5.625 7.526 7.668 9.823-3.098 3.207-5.189 7.439-6.093 12.323-6.188 4.177-9.17 14.444-7.59 21.024a321.53 321.53 0 0 0 2.699 10.426c-2.572 8.496.337 13.361.684 13.899l.035.054.174.236.042.049c2.85 3.384 4.587 7.454 5.113 8.791.129 2.341 1.135 8.748 7.832 15.246.401 2.358 1.405 8.876 1.224 14.136l-.083 2.424 2.277.835c1.901.698 4.034 1.051 6.34 1.051 2.146 0 4.484-.306 6.948-.911a39.35 39.35 0 0 0 4.724-1.488c4.045 2.306 8.736 3.519 9.293 3.659l1.202.299 1.108-.553c.659-.329 1.951-.722 4.365-.722 3.723 0 7.985.94 9.72 1.438l.922.264.923-.264c1.736-.497 6.002-1.436 9.725-1.436 2.413 0 3.703.392 4.361.72l1.107.553 1.201-.299c.56-.14 5.249-1.353 9.295-3.659a39.326 39.326 0 0 0 4.723 1.488c2.463.605 4.8.911 6.946.911 2.307 0 4.44-.353 6.343-1.051l2.277-.835-.084-2.424c-.181-5.26.824-11.778 1.226-14.136 6.694-6.498 7.699-12.904 7.828-15.246.527-1.337 2.264-5.408 5.113-8.792l.042-.048.173-.234.035-.054c.348-.538 3.259-5.404.686-13.9a320.823 320.823 0 0 0 2.701-10.427c1.579-6.578-1.403-16.844-7.59-21.022-.903-4.884-2.995-9.116-6.094-12.325 2.043-2.297 4.964-5.797 7.668-9.823 4.403-6.555 6.704-12.246 6.841-16.917l.022-.775-.32-.707C70.286 59.281 58.771 47.29 53.99 42.51l-.717-.718-.995-.198c-3.379-.676-5.919-3.1-7.548-7.203-1.227-3.091-1.833-7.031-1.668-10.731 2.89-1.682 9.314-5.227 14.343-6.598l1.997-.545.407-2.03c.278-1.39 1.085-6.159-.206-9.17l-.806-1.878-2.038-.142-5.973-.42-8.311-.588-9.05-.642-2.309-.209v-.175L21.285.921C20.058.514 18.714.308 17.287.308c-1.823 0-3.462.334-4.541.624C11.599.591 10.119.423 8.253.423c-1.371 0-2.713.094-3.699.184A17.862 17.862 0 0 0 0 0" style="fill:#230616;fill-opacity:1;fill-rule:nonzero;stroke:none" transform="translate(191.619 106.44)"/><path d="M0 0c3.437 2.208 8.334 1.963 8.334 1.963C2.694 5.639-2.697 6.865-2.697 6.865l-.982-12.012C.734-7.844 4.902-2.45 4.902-2.45Zm78.333-5.147-.979 12.012s-5.395-1.226-11.032-4.902c0 0 4.898.245 8.334-1.963l-4.902-2.45s4.168-5.394 8.579-2.697m12.968-67.392c-.621-4.951-2.572-9.331-5.846-12.507a148.67 148.67 0 0 0-6.937-6.285c-5.315-4.526-9.552-7.566-9.645-7.631 0 0 0-.003-.003-.003-2.182-4.765-6.028-9.954-12.587-15.006l1.227 9.313c-5.256-8.097-15.851-12.746-20.182-20.588-.275.5-.579.989-.904 1.466-4.758 6.983-14.36 11.544-19.279 19.122l1.225-9.313c-6.558 5.052-10.404 10.241-12.584 15.006 0 0-.003.006-.005.006-.183.131-4.389 3.152-9.645 7.628-.002.002-.002.005-.002.005a149.426 149.426 0 0 0-6.933 6.28c-3.274 3.176-5.224 7.556-5.846 12.507h-.001c-5.393 2.45-8.86 12.005-7.389 18.134 1.471 6.128 2.939 11.276 2.939 11.276-2.694 7.844 0 12.012 0 12.012 3.924 4.658 5.884 10.294 5.884 10.294s-.245 7.11 7.6 14.218c0 0 1.716 8.826 1.47 15.933 7.353 2.697 17.161-1.96 17.161-1.96 3.92 2.697 9.804 4.165 9.804 4.165 5.392-2.694 16.505.492 16.505.492s11.111-3.186 16.506-.492c0 0 5.884-1.468 9.805-4.165 0 0 9.804 4.657 17.159 1.96-.245-7.107 1.471-15.933 1.471-15.933 7.844-7.108 7.597-14.218 7.597-14.218s1.963-5.636 5.884-10.294c0 0 2.697-4.168 0-12.012 0 0 1.471-5.148 2.941-11.276 1.472-6.129-1.996-15.684-7.39-18.134M7.098-23.762c.121.044 3.212 1.195 4.654-.247 0 0-5.884-9.316-2.449-16.913l2.205 4.166c2.101-7.837 8.787-5.644 8.941-5.593h.003a12.52 12.52 0 0 1 1.695-2.318h-.002c2.764-7.858 2.959-13.396 3.091-15.867.325-6.208-1.762-8.967.979-11.276.492-.414.984-.685 1.466-.839 1.151-8.311 9.647-10.926 9.647-10.926s8.493 2.615 9.648 10.926c.482.157.971.425 1.463.839 2.744 2.309.655 5.068.982 11.276.131 2.471.327 8.009 3.089 15.867.62.68 1.213 1.455 1.694 2.318h.003c.154-.051 6.84-2.244 8.941 5.593l2.206-4.166c3.431 7.597-2.45 16.913-2.45 16.913 1.44 1.442 4.532.291 4.653.247-1.224 2.942-5.879 6.126-5.879 6.126-.244 4.902 1.961 9.804 1.961 9.804l-4.413.246 2.208 2.941c-4.169.737-11.769-2.694-11.769-2.694v4.41s-6.373-2.45-12.337-8.578c-5.966 6.128-12.34 8.578-12.34 8.578v-4.41s-7.596 3.431-11.764 2.694l2.205-2.941-4.41-.246s2.205-4.902 1.96-9.804c0 0-4.656-3.184-5.881-6.126" style="fill:#e54a13;fill-opacity:1;fill-rule:nonzero;stroke:none" transform="translate(163.097 288.985)"/><path d="M0 0c-3.852-.272-7.414-.525-9.084-.644 0 0 .245 6.963-.736 9.416 0 0-1.951 1.004-3.839.108-.003.003-.003.003-.003 0-.156.099-6.37 3.941-6.37 7.489 0 3.596 2.939 15.689 3.921 18.304.981 2.614 13.727 17.975 15.361 20.918 1.62 2.919 8.4 29.576 8.506 29.994a148.67 148.67 0 0 1 5.057 4.5S28.34 74.221 28.664 63.107c-3.267-7.189-13.726-18.302-19.282-23.859C-.423 37.287-3.365 24.867-2.384 16.042c0 0 9.478-5.882 16.668-7.842 0 0 .982-4.905 0-7.192L8.311.588C5.807.41 2.823.198 0 0" style="fill:#997f7a;fill-opacity:1;fill-rule:nonzero;stroke:none" transform="translate(233.859 112.07)"/><path d="m0 0 .979-12.012C-3.432-14.709-7.6-9.315-7.6-9.315l4.903 2.45c-3.437 2.208-8.334 1.963-8.334 1.963C-5.395-1.226 0 0 0 0" style="fill:#997f7a;fill-opacity:1;fill-rule:nonzero;stroke:none" transform="translate(240.45 295.85)"/><path d="M0 0c-.105-.418-6.886-27.075-8.506-29.994-1.634-2.943-14.38-18.304-15.361-20.918-.982-2.615-3.921-14.708-3.921-18.304 0-3.548 6.214-7.39 6.37-7.489a4.097 4.097 0 0 1-1.35-1.046l-.023-.005c-.085.445-.183.812-.299 1.057 0 0-5.015 1.357-6.247-1.829h-.01a22.611 22.611 0 0 1-.226 1.702s-4.671 1.973-7.211-1.688l-.033-.002a52.69 52.69 0 0 1-.124 1.211s-5.261 2.869-8.399-2.233c.019.34.039.68.055 1.022a4478.794 4478.794 0 0 1 1.236 24.989c.979 8.581 1.955 21.078 1.955 21.078.325-.477.629-.966.905-1.466 4.331 7.842 14.925 12.491 20.181 20.588l-1.226-9.313c6.558 5.052 10.405 10.241 12.587 15.006.002 0 .002.003.002.003C-9.552-7.566-5.314-4.526 0 0" style="fill:#dbd3d1;fill-opacity:1;fill-rule:nonzero;stroke:none" transform="translate(241.615 197.654)"/><path d="M0 0c2.697 2.859-.258 7.107-.258 7.107-2.697-1.47-6.404-2.217-6.404-2.217s-3.71.747-6.406 2.217c0 0-2.953-4.248-.258-7.107.767-.814 2.792-.16 3.555.126.633-.68 1.623-1.381 3.109-1.68 1.486.299 2.475 1 3.109 1.68C-2.787-.163-.766-.814 0 0m-16.305 17.16c1.897.314 3.355.708 3.427.729-3.957 2.243-5.212 6.654-12.428 5.657v-.003s-1.293-5.487 2.301-6.466c1.878-.513 4.557-.268 6.688.083zM-23.541-.201c-.154-.051-6.84-2.244-8.941 5.593l-2.206-4.166c-3.434 7.597 2.45 16.913 2.45 16.913-1.443 1.442-4.533.291-4.655.247 1.226 2.942 5.881 6.126 5.881 6.126.245 4.902-1.96 9.804-1.96 9.804l4.41.246-2.205 2.941c4.168.737 11.765-2.694 11.765-2.694v4.41s6.374-2.45 12.34-8.578c5.964 6.128 12.337 8.578 12.337 8.578v-4.41s7.599 3.431 11.768 2.694l-2.208-2.941 4.413-.246s-2.205-4.902-1.961-9.804c0 0 4.656-3.184 5.879-6.126-.121.044-3.212 1.195-4.652-.247 0 0 5.881-9.316 2.449-16.913l-2.205 4.166c-2.101-7.837-8.787-5.644-8.941-5.593h-.003A12.602 12.602 0 0 0 8.52-2.52C6.61-4.617 4.449-5.802 4.449-5.802s-2.033.864-4.926 1.528c-1.819.42-3.977.76-6.185.76-2.208 0-4.366-.34-6.186-.76-2.895-.664-4.927-1.528-4.927-1.528s-2.162 1.185-4.068 3.282a12.515 12.515 0 0 0-1.695 2.319zm23.096 18.09a36.963 36.963 0 0 1 3.425-.729h.013c2.131-.351 4.81-.596 6.686-.083 3.595.979 2.302 6.466 2.302 6.466v.003c-7.215.997-8.47-3.411-12.426-5.657" style="fill:#dbd3d1;fill-opacity:1;fill-rule:nonzero;stroke:none" transform="translate(207.087 246.837)"/><path d="M0 0s1.293-5.487-2.303-6.466c-1.876-.513-4.554-.268-6.685.083h-.013a37.12 37.12 0 0 0-3.426.729C-8.471-3.408-7.216 1 0 .003Z" style="fill:#d1fa32;fill-opacity:1;fill-rule:nonzero;stroke:none" transform="translate(219.069 270.38)"/><path d="M0 0c-1.154-8.311-9.647-10.925-9.647-10.925S-18.144-8.311-19.295 0a4.348 4.348 0 0 0-1.466.84c-2.741 2.308-.654 5.067-.978 11.276-.132 2.47-.327 8.009-3.092 15.866h.003c1.906-2.097 4.067-3.282 4.067-3.282.247-1.02.598-1.881 1-2.604 1.957-4.836 1.579-12.608 1.572-12.783V9.31c-.596-2.558-.12-4.222-.12-4.222.861-.984 2.278-1.133 3.275-.17a2.38 2.38 0 0 1 .237.257c1.984 1.999 5.15 1.549 5.15 1.549s3.202.456 5.177-1.582c.068-.082.135-.157.206-.224.997-.963 2.417-.814 3.278.17 0 0 .479 1.674-.124 4.243.003.002 0 .007 0 .01-.023.544-.335 8.04 1.574 12.755.402.723.752 1.584 1 2.604 0 0 2.161 1.185 4.07 3.282-2.762-7.857-2.958-13.396-3.089-15.866C2.118 5.907 4.207 3.148 1.464.84A4.365 4.365 0 0 0 0 0" style="fill:#dbd3d1;fill-opacity:1;fill-rule:nonzero;stroke:none" transform="translate(210.073 216.336)"/><path d="M0 0a10.39 10.39 0 0 0-1-2.604c-1.463-2.638-3.575-3.442-3.575-3.442s-.186 1.585-.289 3.743a52.647 52.647 0 0 0-.062 3.831C-2.033.863 0 0 0 0" style="fill:#dbd3d1;fill-opacity:1;fill-rule:nonzero;stroke:none" transform="translate(211.536 241.036)"/><path d="M0 0c.604-2.568.124-4.243.124-4.243-.86-.984-2.28-1.133-3.277-.17a3.414 3.414 0 0 1-.206.225c-.24.285-.446.648-.603 1.089l.92 2.579 1.532 4.287C-.721 2.391-.26 1.118 0 .01 0 .008.003.003 0 0" style="fill:#dbd3d1;fill-opacity:1;fill-rule:nonzero;stroke:none" transform="translate(208.962 225.667)"/><path d="M0 0s2.112.804 3.575 3.442C1.666-1.272 1.979-8.769 2.001-9.313c-.26 1.108-.721 2.38-1.51 3.756l-1.532-4.286S-2.45-8.661-6.536-8.661s-5.497-1.182-5.497-1.182l-1.53 4.286c-.794-1.388-1.258-2.671-1.515-3.784.008.175.386 7.947-1.571 12.783C-15.187.804-13.074 0-13.074 0s.185 1.582.291 3.743c0 0 3.96.667 6.247.667 2.288 0 6.245-.667 6.245-.667h.002C-.186 1.584 0 0 0 0" style="fill:#e54a13;fill-opacity:1;fill-rule:nonzero;stroke:none" transform="translate(206.961 234.99)"/><path d="M0 0c-.763-.286-2.787-.94-3.555-.126-2.695 2.859.258 7.107.258 7.107 2.696-1.47 6.406-2.217 6.406-2.217s3.707.747 6.405 2.217c0 0 2.955-4.248.257-7.107C9.006-.94 6.984-.289 6.219 0c-.634-.68-1.623-1.381-3.11-1.68C1.623-1.381.634-.68 0 0" style="fill:#e54a13;fill-opacity:1;fill-rule:nonzero;stroke:none" transform="translate(197.316 246.963)"/><path d="M0 0h-.002s-3.957.667-6.245.667C-8.534.667-12.494 0-12.494 0c.056 1.162.093 2.491.061 3.831 1.82.419 3.978.759 6.186.759 2.208 0 4.366-.34 6.185-.759C-.093 2.491-.059 1.162 0 0" style="fill:#dbd3d1;fill-opacity:1;fill-rule:nonzero;stroke:none" transform="translate(206.672 238.733)"/><path d="m0 0-.92-2.579c.157-.441.363-.804.603-1.089-1.976 2.037-5.178 1.581-5.178 1.581s-3.166.451-5.15-1.548c.227.281.422.634.575 1.056L-10.992 0s1.411 1.182 5.497 1.182S0 0 0 0" style="fill:#dbd3d1;fill-opacity:1;fill-rule:nonzero;stroke:none" transform="translate(205.92 225.147)"/><path d="M0 0s-.977-12.497-1.955-21.078c0 0-.615-13.26-1.236-24.988-2.54 3.658-8.16 1.439-8.16 1.439a22.611 22.611 0 0 1-.226-1.702h-.01c-1.231 3.186-6.247 1.829-6.247 1.829-.116-.245-.214-.61-.299-1.057l-.023.005c-.191.22-.387.407-.588.568l.036.048s6.211 4.576 6.211 8.169c0 3.596-2.941 15.689-3.92 18.304-.982 2.614-13.729 17.976-15.362 20.918-1.623 2.919-8.404 29.576-8.509 29.994 5.256-4.475 9.462-7.497 9.645-7.628.002 0 .005-.006.005-.006 2.18-4.765 6.026-9.954 12.584-15.005l-1.225 9.312C-14.359 11.544-4.758 6.983 0 0" style="fill:#dbd3d1;fill-opacity:1;fill-rule:nonzero;stroke:none" transform="translate(199.52 165.205)"/><path d="m0 0 .922-2.579A3.652 3.652 0 0 0 .34-3.646a3.644 3.644 0 0 1-.23-.247c-.997-.963-2.414-.814-3.274.17 0 0-.477 1.664.119 4.223v.002c.257 1.113.721 2.396 1.515 3.785z" style="fill:#dbd3d1;fill-opacity:1;fill-rule:nonzero;stroke:none" transform="translate(194.928 225.147)"/><path d="M0 0a53.815 53.815 0 0 0-.062-3.831 60.849 60.849 0 0 0-.291-3.743s-2.112.804-3.575 3.442a10.352 10.352 0 0 0-1 2.604S-2.896-.665 0 0" style="fill:#dbd3d1;fill-opacity:1;fill-rule:nonzero;stroke:none" transform="translate(194.24 242.564)"/><path d="M0 0a37.099 37.099 0 0 0-3.427-.729h-.012c-2.131-.351-4.81-.595-6.688-.083-3.594.979-2.301 6.466-2.301 6.466v.003C-5.212 6.654-3.957 2.244 0 0" style="fill:#d1fa32;fill-opacity:1;fill-rule:nonzero;stroke:none" transform="translate(194.21 264.726)"/><path d="M0 0c-6.227.523-12.785 1.093-12.785 1.093-.98 2.287 0 7.192 0 7.192 7.192 1.96 16.67 7.842 16.67 7.842.981 8.825-1.961 21.245-11.766 23.206-5.557 5.557-16.015 16.67-19.284 23.859.327 11.114 15.853 26.978 15.853 26.978a149.426 149.426 0 0 1 5.052-4.495s0-.003.002-.005c.106-.418 6.886-27.075 8.509-29.994 1.634-2.943 14.38-18.304 15.362-20.918.979-2.615 3.92-14.708 3.92-18.304 0-3.594-6.211-8.169-6.211-8.169l-.036-.049c-2.084 1.667-4.603.371-4.603.371-.982-2.453-.737-9.416-.737-9.416C8.12-.678 4.135-.348 0 0" style="fill:#dbd3d1;fill-opacity:1;fill-rule:nonzero;stroke:none" transform="translate(165.49 111.984)"/><path d="M0 0c-2.084 1.667-4.604.371-4.604.371-.981-2.453-.736-9.416-.736-9.416l5.395-.489S.062-3.406.611-.572l-.023.005A4.506 4.506 0 0 1 0 0m.91.484C.794.239.696-.126.611-.572.062-3.406.055-9.534.055-9.534l7.107-.248s-.381 4.518.005 8.437h-.01C5.926 1.842.91.484.91.484m14.643-1.566C13.013 2.576 7.394.357 7.394.357a22.603 22.603 0 0 1-.227-1.702c-.386-3.919-.005-8.437-.005-8.437 3.676-1.468 7.911.006 7.911.006.137 2.321.281 4.943.425 7.672.019.339.039.679.055 1.022M23.896.129s-5.26 2.869-8.398-2.233c-.144-2.729-.288-5.351-.425-7.672 0 0 6.864-.735 8.334.492 1.118.93.82 5.876.614 8.202-.068.736-.125 1.211-.125 1.211m7.369.478s-4.671 1.974-7.211-1.687l-.033-.002c.206-2.326.504-7.272-.614-8.202 0 0 4.413-1.716 8.089-.248 0 0 .382 4.518-.005 8.437a22.611 22.611 0 0 1-.226 1.702m6.782-.929c-.085.445-.183.811-.299 1.056 0 0-5.016 1.358-6.247-1.829h-.01c.387-3.919.005-8.437.005-8.437l7.108.248s-.008 6.128-.557 8.962m5.215.943c.981-2.453.736-9.416.736-9.416l-5.394-.489s-.008 6.128-.557 8.962l.023.005c.425.492.887.827 1.35 1.046 0 .002 0 .002.003 0 1.889.896 3.839-.108 3.839-.108" style="fill:#dbd3d1;fill-opacity:1;fill-rule:nonzero;stroke:none" transform="translate(180.777 120.22)"/><path d="M0 0s-4.897.245-8.334-1.963l4.902-2.45S-7.6-9.807-12.013-7.11l.982 12.012S-5.64 3.676 0 0" style="fill:#997f7a;fill-opacity:1;fill-rule:nonzero;stroke:none" transform="translate(171.431 290.948)"/><path d="m0 0 4.902 2.45C1.466 4.658-3.432 4.413-3.432 4.413 2.205 8.089 7.6 9.315 7.6 9.315l.979-12.012C4.168-5.395 0 0 0 0m25.996-40.68c2.697 7.845 0 12.013 0 12.013-3.921 4.657-5.884 10.294-5.884 10.294s.247 7.11-7.597 14.218c0 0-1.716 8.825-1.471 15.933C3.689 14.475-6.115 9.817-6.115 9.817c-3.921 2.698-9.805 4.166-9.805 4.166-2.131-1.064-5.151-1.211-8.028-.999-5.563-3.04-9.828-8.475-11.249-14.67-4.717 2.259-8.949 6.453-10.629 11.404-.395-4.463-.444-9.638.453-14.028.023-.114.042-.231.063-.345.347-.145.544-.235.544-.235v4.411s6.374-2.45 12.34-8.579c5.964 6.129 12.337 8.579 12.337 8.579V-4.89s7.6 3.432 11.769 2.695l-2.208-2.942 4.413-.245s-2.205-4.902-1.961-9.805c0 0 4.655-3.184 5.879-6.125-.121.043-3.213 1.195-4.653-.248 0 0 5.881-9.315 2.45-16.912l-2.205 4.165c-2.102-7.836-8.788-5.644-8.942-5.592h-.003a12.523 12.523 0 0 0-1.694-2.319c-2.762-7.857-2.958-13.396-3.089-15.866-.327-6.208 1.762-8.968-.981-11.276a4.41 4.41 0 0 0-1.464-.84c-1.155-8.31-9.648-10.925-9.648-10.925s-8.496 2.615-9.647 10.925c-.482.155-.974.426-1.466.84-2.741 2.308-.654 5.068-.979 11.276-.131 2.47-.327 8.009-3.091 15.866h.003a12.486 12.486 0 0 0-1.696 2.319h-.003c-.154-.052-6.84-2.244-8.941 5.592l-2.205-4.165c-3.435 7.597 2.45 16.912 2.45 16.912-1.443 1.443-4.534.291-4.655.248.147.355.346.714.581 1.071-15.009-11.773-25.179-29.488-26.369-48.512l.075-.067c1.123 9.962 7.094 20.422 14.605 26.756.249-8.866-.825-18.946-3.726-27.327 1.635 2.506 3.883 6.333 5.516 8.839.222-7.383 2.117-15.036 5.525-21.588 0 0 3.627 9.494 10.626 12.835-1.049-5.825-1.527-12.829-.819-18.705.595 4.288 1.141 7.192 3.016 11.094-.024-5.009 3.531-10.105 6.582-14.079 3.052-3.972 6.577-7.673 8.681-12.22 1.868-4.038 2.382-9.05.296-12.873 1.807-1.642 3.45-3.354 4.737-5.243.325-.476.629-.965.904-1.465 4.331 7.841 14.926 12.491 20.182 20.588l-1.227-9.313c6.559 5.052 10.406 10.24 12.587 15.006.003 0 .003.003.003.003.093.064 4.33 3.104 9.645 7.631a148.67 148.67 0 0 1 6.937 6.285c3.275 3.177 5.225 7.556 5.846 12.507 5.394 2.45 8.862 12.005 7.39 18.133a304.052 304.052 0 0 1-2.941 11.276" style="fill:#910644;fill-opacity:1;fill-rule:nonzero;stroke:none" transform="translate(232.851 286.536)"/><path d="M0 0c1.277 4.847 4.599 9.12 8.98 11.553 4.383 2.433 9.766 2.993 14.555 1.514C15.018 9.872 6.891 5.939 0 0" style="fill:#910644;fill-opacity:1;fill-rule:nonzero;stroke:none" transform="translate(148.546 259.951)"/><path d="M0 0a44.303 44.303 0 0 0-9.121-20.994c4.253.983 8.213 4.027 9.963 8.026C2.592-8.969 2.164-3.791 0 0" style="fill:#e54a13;fill-opacity:1;fill-rule:nonzero;stroke:none" transform="translate(217.173 201.786)"/><path d="M0 0a68.992 68.992 0 0 0-6.357-17.907l.448-6.271c3.678 2.486 6.377 6.381 7.415 10.696C2.544-9.166 2.145-3.887 0 0" style="fill:#e54a13;fill-opacity:1;fill-rule:nonzero;stroke:none" transform="translate(226.269 201.465)"/><path d="M0 0c6.899 8.668 10.89 19.612 11.188 30.687 3.033-6.267 4.276-12.857 2.517-19.593C12.283 5.653 5.036 2.502 0 0" style="fill:#e54a13;fill-opacity:1;fill-rule:nonzero;stroke:none" transform="translate(237.64 195.623)"/><path d="M0 0c1.512-7.714 6.053-14.794 12.434-19.387.351-2.939 1.354-6.091 1.706-9.03-3.437 4.635-8.861 8.345-11.814 13.303C-.105-11.032-1.052-4.633 0 0" style="fill:#ffda94;fill-opacity:1;fill-rule:nonzero;stroke:none" transform="translate(166.985 204.065)"/><path d="M0 0c-2.649 4.835-3.556 10.602-2.518 16.016.803-6.859 6.61-12.812 11.36-17.824 4.75-5.012 10.001-9.82 12.848-16.111-.548-.432-1.556-1.009-2.104-1.44C13.479-12.829 4.297-7.84 0 0" style="fill:#ffda94;fill-opacity:1;fill-rule:nonzero;stroke:none" transform="translate(180.873 183.853)"/><path d="M0 0c-4.693 4.917-7.665 11.445-8.292 18.213-2.326-1.905-3.673-5.258-3.837-8.26-.165-3.002.983-6.054 3.087-8.203C-5.566-1.801-2.737-5.396 1.41-8.132z" style="fill:#ffda94;fill-opacity:1;fill-rule:nonzero;stroke:none" transform="translate(166.852 198.29)"/><path d="M0 0c-5.42 9.336-5.796 21.41-.966 31.064-5.765-4.144-9.619-11.534-9.264-18.626C-9.875 5.347-5.723-1.442.429-4.99Z" style="fill:#ffda94;fill-opacity:1;fill-rule:nonzero;stroke:none" transform="translate(157.262 205.38)"/><path d="M0 0a8.263 8.263 0 0 1-2.146 2.076c-.921-.057-1.899.138-2.89.744l.981 12.012s.08-.018.229-.056l-.007.137c.228-.113.464-.223.704-.329a35.345 35.345 0 0 0 2.763-.934c2.451-.581 5.036-.519 6.845.951a4.61 4.61 0 0 1 1.212 1.54c-3.237 1.198-9.857 3.11-15.19 1.154.245-7.107-1.471-15.933-1.471-15.933-7.844-7.108-7.599-14.218-7.599-14.218s-1.96-5.637-5.884-10.294c0 0-2.694-4.168 0-12.013 0 0-1.469-5.147-2.94-11.275-1.47-6.129 1.997-15.684 7.389-18.134h.002a25.08 25.08 0 0 1 .762-3.754c.275 3.273.194 6.461-1.183 9.362-2.985 6.291-2.195 13.852.507 20.27 2.702 6.418 7.133 11.93 11.507 17.349-4.031-1.633-8.862-3.203-12.894-4.836 2.184 4.028 4.153 8.905 6.336 12.933C-9.871-7.539-6.431-.9 0 0" style="fill:#ffda94;fill-opacity:1;fill-rule:nonzero;stroke:none" transform="translate(164.454 281.019)"/><path d="M0 0c2.173 2.063 5.261 3.126 8.243 2.837C6.082.393 5.413-3.252 6.542-6.314 4.214-4.571 1.316-2.593 0 0" style="fill:#ffda94;fill-opacity:1;fill-rule:nonzero;stroke:none" transform="translate(189.891 295.679)"/><path d="m0 0 1.586-8.507C-.491-6.992-2.758-5.184-4.835-3.669c.243 1.707 1.95 3.18 3.669 3.044" style="fill:#ffda94;fill-opacity:1;fill-rule:nonzero;stroke:none" transform="translate(183.288 295.9)"/><path d="m0 0 2.205-4.166C5.637 3.432-.244 12.747-.244 12.747c1.439 1.442 4.531.291 4.652.247-1.223 2.942-5.879 6.126-5.879 6.126C-1.715 24.022.49 28.925.49 28.925l-4.413.245 2.208 2.942c-4.169.737-11.768-2.695-11.768-2.695v4.41s-6.373-2.45-12.337-8.578c-5.966 6.128-12.34 8.578-12.34 8.578v-4.41s-7.597 3.432-11.765 2.695l2.205-2.942-4.41-.245s2.175-4.838 1.964-9.708l1.14-.359c.658 2.329.88 4.781.653 7.19 2.696-1.257 5.801-1.686 8.497-2.944-.02 1.451-.619 3.215-1.623 4.262 4.677-1.341 8.378-4.106 10.414-8.524.648-1.406 3.412-1.945 4.61-2.925-.578-1.649-1.916-2.816-3.277-3.911 1.808-1.426 3.212-3.053 3.911-5.248.833 1.949 2.549 3.672 4.244 4.942-1.435.706-2.191 3.321-2.57 4.875 4.276 3.055 8.365 6.864 12.642 9.92-.736-1.538-1.189-3.134-1.925-4.672 2.371 2.967 6.431 4.828 10.177 4.197-.984-2.723-2.017-6.051-3-8.773-.251.023-.504.035-.759.042.196-1.586.256-4.868-2.447-5.603-1.876-.513-4.555-.269-6.686.082h-.013c-.763.127-1.454.266-2.013.389-1.743-2.165-2.819-4.868-2.988-7.644 1.835.802 4.261 2.214 6.096 3.016 2.265-1.073 3.923-3.558 4.327-6.032.403-2.474-.478-5.122-2.284-6.86-1.242 1.209-3.211 2.185-5.018 2.323a4.05 4.05 0 0 0-1.1-2.352c-.766-.814-2.787-.162-3.553.126-.634-.679-1.623-1.38-3.109-1.679-1.487.299-2.476 1-3.11 1.679-.762-.285-2.787-.94-3.554-.126a4.07 4.07 0 0 0-.858 1.36 7.399 7.399 0 0 0-7.508-4.04c1.868-1.995 3.916-3.121 3.916-3.121s2.033.863 4.928 1.527c1.819.42 3.978.76 6.186.76 2.208 0 4.366-.34 6.185-.76 2.893-.664 4.926-1.527 4.926-1.527s2.161 1.185 4.07 3.282c.62.68 1.213 1.455 1.695 2.318h.003C-8.787-5.644-2.102-7.836 0 0" style="fill:#997f7a;fill-opacity:1;fill-rule:nonzero;stroke:none" transform="translate(226.245 252.229)"/><path d="M0 0a5.557 5.557 0 0 1-.323-.657l.017-.019L0 0" style="fill:#997f7a;fill-opacity:1;fill-rule:nonzero;stroke:none" transform="translate(185.288 245.295)"/><path d="M0 0c1.685-.033 3.356.899 4.214 2.35C6.77.172 7.04-4.207 4.694-6.611 4.684-4.093 2.097-1.393 0 0" style="fill:#dbd3d1;fill-opacity:1;fill-rule:nonzero;stroke:none" transform="translate(217.093 261.24)"/><path d="M0 0c-1.467.048-2.745 1.462-2.645 2.926-1.411-1.019-1.736-3.561-.712-4.969C-2.12-1.913-.847-.913 0 0" style="fill:#997f7a;fill-opacity:1;fill-rule:nonzero;stroke:none" transform="translate(182.776 260.646)"/><path d="M0 0c.014 1.742 1.955 2.862 3.692 2.978 1.739.115 3.49-.388 5.213-.144 1.725.244 3.523 1.716 3.152 3.417 1.835-.204 3.656-2.147 3.138-3.919C14.678.56 12.4-.442 10.744.374 10.502-.969 8.213-2.074 6.85-2.155c-1.363-.081-2.72.863-3.119 2.169C2.643-.095 1.09.109 0 0" style="fill:#910644;fill-opacity:1;fill-rule:nonzero;stroke:none" transform="translate(193.791 246.9)"/><path d="M0 0c1.069 1.406 3.174 1.902 4.759 1.123C6.344.344 7.235-1.626 6.775-3.331c.437 0 1.463-.071 1.899-.071-.894 1.1.098 3.303 1.482 3.608 1.385.304 2.823-1.18 2.474-2.553 1.866 1.843 2.285 4.636.403 6.462-1.883 1.827-4.778 2.274-7.356 1.791C3.099 5.424.752 4.14-1.546 2.875-1.328 1.786-.218 1.09 0 0" style="fill:#910644;fill-opacity:1;fill-rule:nonzero;stroke:none" transform="translate(193.385 230.04)"/><path d="M0 0c-.206.358-.422.71-.645 1.057C-2.054-.155-3.264-.819-3.264-.819a10.337 10.337 0 0 0-1-2.604C-6.173-8.138-5.86-15.634-5.838-16.178c0-.003.003-.008 0-.01.604-2.569.124-4.243.124-4.243-.86-.984-2.28-1.133-3.277-.17a2.233 2.233 0 0 0-.206.224 4.757 4.757 0 0 1-1.015.793l-.061-.219c-1.86-3.728-8.738-2.269-10.397-6.09 1.844.386 3.649-.192 4.847-1.647 1.198-1.454 1.509-3.584.776-5.32.888 2.173 2.214 4.299 3.101 6.472 1.616-2.541 1.516-6.254-.133-8.772.763.356 1.518.756 2.264 1.192 2.217 1.701 4.525 4.396 5.087 8.449.483.157.972.425 1.464.84 2.743 2.308.655 5.067.982 11.276C-2.165-11.2-1.995-6.554 0 0" style="fill:#997f7a;fill-opacity:1;fill-rule:nonzero;stroke:none" transform="translate(214.8 241.855)"/><path d="M0 0c.208 1.502 1.269 2.858 2.678 3.42 1.409.562 3.111.309 4.296-.637C4.78 3.979 2.053 5.05-.432 4.793-.134 3.154-.298 1.639 0 0" style="fill:#8bc41f;fill-opacity:1;fill-rule:nonzero;stroke:none" transform="translate(182.562 264.907)"/><path d="M0 0c2.479.865 5.522-.797 6.135-3.349.849 1.462 1.186 3.944.793 5.589C4.875 2.165 1.798.994 0 0" style="fill:#8bc41f;fill-opacity:1;fill-rule:nonzero;stroke:none" transform="translate(212.497 268.204)"/><path d="m0 0 1.226-9.313C-5.333-4.261-9.179.928-11.358 5.693c0 0-.003.006-.005.006-.099.071-1.355.973-3.308 2.484l-.072-.829a218.143 218.143 0 0 1 10.959-26.87c4.109 2.495 11.163.208 13.887-3.753 2.724-3.96 2.787-9.285 1.296-13.855-1.406 1.562-3.497 2.867-5.595 2.984 3.484-7.349 6.136-15.753 5.965-23.884-2.434-1.365-4.33-3.355-5.833-5.68.755-.308 1.408-.845 1.756-1.747h.01c.057.587.132 1.159.227 1.702 0 0 5.619 2.219 8.159-1.439A4475.62 4475.62 0 0 1 17.324-40.2c.979 8.581 1.955 21.078 1.955 21.078C14.521-12.139 4.92-7.578 0 0" style="fill:#997f7a;fill-opacity:1;fill-rule:nonzero;stroke:none" transform="translate(180.242 184.327)"/><path d="M0 0c1.62 2.919 8.4 29.576 8.506 29.994-5.315-4.526-9.552-7.566-9.645-7.631 0 0 0-.003-.003-.003-2.181-4.765-6.028-9.954-12.587-15.006l1.227 9.313C-17.758 8.57-28.353 3.921-32.684-3.921c-.275.5-.579.989-.904 1.466 0 0-.433-5.553-1.013-11.797 1.274 4.614 4.143 8.791 8.051 11.563-.554-2.068-1.097-5.205-1.652-7.272 3.556.847 7.723 2.561 10.487 4.953-2.07-9.298-3.329-18.767-5.399-28.065-.318-1.427-.646-2.881-1.399-4.133-.753-1.252-2.017-2.29-3.476-2.381-1.458-.092-3.001 1.026-3.033 2.487l-.973-9.413c1.96.073 3.559-.798 3.559-.798s.057-.474.124-1.21l.034.001c2.54 3.662 7.211 1.688 7.211 1.688.094-.543.17-1.115.226-1.702h.01c1.231 3.186 6.247 1.829 6.247 1.829.116-.245.214-.611.299-1.057l.023.005c.425.492.887.827 1.35 1.046-.156.099-6.37 3.941-6.37 7.489 0 3.596 2.939 15.689 3.921 18.304C-14.38-18.304-1.634-2.942 0 0" style="fill:#997f7a;fill-opacity:1;fill-rule:nonzero;stroke:none" transform="translate(233.109 167.66)"/><path d="M0 0c.088-2.18-.037-4.383.051-6.562l-2.287.981C-2.681-3.654-1.545-1.234 0 0" style="fill:#997f7a;fill-opacity:1;fill-rule:nonzero;stroke:none" transform="translate(204.937 139.368)"/><path d="M0 0c-.108.98-.194 2.56-.304 3.54A20.685 20.685 0 0 0-6.84-.055c-.101.764-.15 2.188-.252 2.951-1.929-1.7-4.4-3.2-6.941-3.589-.116 1.198-.583 2.378-.699 3.575-2.676-1.762-5.948-3.362-9.109-3.89-.109.871-.156 2.05-.265 2.921-2.01-1.654-4.971-2.936-7.574-2.924V2.56c-1.946-1.911-4.493-3.198-7.194-3.572 0 .981.33 2.264.33 3.245C-39.947.484-42.051-.673-44.27-.964c-.02-1.575.022-2.773.022-2.773l5.394-.49 7.108-.248c3.676-1.467 7.911.006 7.911.006s6.863-.734 8.334.492c0 0 4.413-1.715 8.089-.248l7.107.248 5.395.49s.191 5.452-.445 8.406l-.229-.456A8.261 8.261 0 0 0 0 0" style="fill:#997f7a;fill-opacity:1;fill-rule:nonzero;stroke:none" transform="translate(219.685 114.913)"/><path d="M0 0s6.211 4.575 6.211 8.169c0 3.596-2.941 15.688-3.92 18.304-.982 2.614-13.729 17.975-15.362 20.918-1.623 2.919-8.404 29.576-8.509 29.994-.002.002-.002.005-.002.005-.507.43-1.025.88-1.549 1.338l-.412-.383a377.735 377.735 0 0 1-10.982-23.33c2.355.142 4.698 1.937 6.4 3.572-.556-6.81 1.395-13.524 4.621-19.546-.125 1.51.629 3.941 1.301 5.299 6.825-2.35 12.273-7.615 16.057-13.763 3.784-6.146 5.361-13.621 4.383-20.772-4.299-4.292-9.872-7.927-15.602-9.944-.656-2.842-3.169-5.146-6.084-5.02.084 1.143.126 3.018.21 4.163a13.009 13.009 0 0 0-5.298-3.715c.025-.925.143-1.814.43-2.481 0 0 6.558-.57 12.785-1.093 4.134-.348 8.12-.678 9.946-.809 0 0-.245 6.963.736 9.416 0 0 2.52 1.296 4.604-.371z" style="fill:#997f7a;fill-opacity:1;fill-rule:nonzero;stroke:none" transform="translate(180.813 120.27)"/><path d="M0 0c2.988.266 5.32 3.548 4.588 6.457C3.046 5.541 1.584 4.362.042 3.445-.035 2.302.076 1.144 0 0" style="fill:#dbd3d1;fill-opacity:1;fill-rule:nonzero;stroke:none" transform="translate(165.952 115.004)"/><path d="M0 0c.535 8.725 4.812 17.157 11.534 22.744C8.466 14.579 7.997 5.398 9.27-3.231 7.559-2.165 6.09-.048 5.789 1.945c-.303-1.999.077-4.087 1.004-5.883C4.742-2.727 2.051-1.211 0 0" style="fill:#dbd3d1;fill-opacity:1;fill-rule:nonzero;stroke:none" transform="translate(217.973 130.067)"/><path d="M0 0c-.825-1.475-.704-3.427.296-4.789 1-1.361 2.826-2.062 4.48-1.715-.168.98-.007 1.922-.175 2.901C2.506-3.395.595-2.019 0 0" style="fill:#dbd3d1;fill-opacity:1;fill-rule:nonzero;stroke:none" transform="translate(229.057 122.393)"/><path d="M0 0c-1.016-1.403-1.021-3.458-.015-4.868C.993-6.277 2.938-6.937 4.596-6.431c-.083 1.144-.166 2.422-.248 3.567-1.702.463-3.122 1.7-3.529 3.415" style="fill:#dbd3d1;fill-opacity:1;fill-rule:nonzero;stroke:none" transform="translate(237.378 123.118)"/><path d="M0 0c1.537-.919 3.53-1.024 5.156-.272-.164.817.153 1.657-.01 2.474-2.124.496-4.26 1.183-6.383 1.679C-.669 2.898-.975.582 0 0" style="fill:#dbd3d1;fill-opacity:1;fill-rule:nonzero;stroke:none" transform="translate(242.426 117.804)"/><path d="M0 0a5.116 5.116 0 0 1 3.266 3.271c.558 1.764-.987 4.021-2.613 4.903C.957 5.33.532 2.811 0 0" style="fill:#997f7a;fill-opacity:1;fill-rule:nonzero;stroke:none" transform="translate(172.971 128.583)"/><path d="M0 0c-4.674-1.072-8.291-4.424-10.476-9.716-1.789-4.335-2.492-9.733-1.926-14.811l.068-.622.532-.33a98.841 98.841 0 0 1 5.603-3.176s.304-3.1 4.383-4.876c.259-1.771.225-3.859.17-5.103-1.808-.129-3.794-.269-5.76-.407.029 1.562.009 4.061-.326 5.899l-.127.692-.65.267c-1.057.437-4.028 1.907-5.055 3.449 0 0-.665-3.184 3.398-5.532.21-1.638.207-3.702.179-4.958l-6.52-.462c.02 2.267-.06 6.518-.857 8.509l-.179.447-.427.22c-.091.046-1.984 1.001-4.093.45l-.036.035-.172-.072c-2.273 1.523-5.212 4.134-5.212 6.039 0 3.302 2.81 15.113 3.838 17.851.347.924 2.855 4.288 5.497 7.728a49.49 49.49 0 0 0 12.713 8.866c-.334-2.178-.687-4.424-1.021-6.602C-3.063 7.403-.345 12.424.469 17.318c1.144-3.708 1.199-7.074.157-10.811 5.004 4.044 9.986 9.582 13.43 15.016-1.416 4.891-3.532 9.539-6.44 13.717-.216-3.486-.512-6.637-.727-10.124-.27 6.85-2.683 13.593-6.787 19.078l.063.253a152.526 152.526 0 0 1 3.845 3.401c3.177-3.442 14.122-15.914 14.615-24.909C15.105 15.515 3.835 3.852 0 0m-19.086-39.892-2.859-.259c-.034 1.806-.135 4.953-.447 7.092.151.124.308.23.473.314l.073.035c.832.395 1.73.234 2.251.076.46-1.752.532-5.158.509-7.258m-9.863-.579c.082 1.605.156 4.299-.065 6.851.713 1.278 2.842 1.136 3.938.965l.038-.188c.373-1.928.484-5.562.518-7.473zm-1.107 9.99c-1.586.669-4.756 1.2-7.218-.553l-.034.018c-1.637.894-4.807 1.663-7.549-.03a4790.685 4790.685 0 0 1 1.109 22.574c.632 5.545 1.267 12.768 1.635 17.159l1.068 1.933c.944 1.71 2.213 3.266 3.678 4.753 2.723 1.798 6.013 2.736 9.266 2.415-1.279-2.195-2.677-4.522-3.957-6.718 4.031 1.471 9.027 5.201 11.744 8.521.673-5.951-4.21-18.335-4.21-18.335s7.391 10.104 10.867 14.645c0 0 4.006 12.465 6.349 22.495 1.101.84 2.498 1.932 4.09 3.226-2.452-9.484-6.347-23.941-7.397-25.833-.672-1.21-3.668-5.07-6.566-8.804-4.988-6.427-8.301-10.756-8.876-12.287-1.002-2.67-4.003-14.871-4.003-18.756 0-2.187 1.706-4.309 3.455-5.911l-.183-.005c-1.081-.046-2.017-.29-2.783-.713zm-1.496-10.375c-1.829-.483-3.799-.194-5.062.106.287 1.221.435 3.304.141 6.965 1.452 1.73 3.669 1.431 4.763 1.142.037-.274.069-.559.098-.854.273-2.768.147-5.895.06-7.359m-7.718.266c-.626-.386-3.293-.499-6.12-.291.104 1.797.216 3.839.335 6.091 1.94 2.86 4.703 2.241 5.928 1.774l.043-.456c.417-4.705.071-6.685-.186-7.118m-7.049 32.28a4730.26 4730.26 0 0 0-1.1-22.388c-1.108.557-2.438.802-3.954.719a12.5 12.5 0 0 1-3.527-.741l-.528-.208c-.627.342-1.367.565-2.205.658 1.682 1.76 3.347 4.047 3.347 6.212 0 3.872-3 16.079-4.003 18.756-.574 1.531-3.888 5.859-8.876 12.287-2.898 3.734-5.894 7.594-6.565 8.805-1.124 2.02-5.25 17.534-7.399 25.832a155.866 155.866 0 0 1 6.379-4.936l.203-.444h.014a34.326 34.326 0 0 1 2.01-3.541c1.479-6.18 4.026-12.294 6.813-17.71 2.903 1.395 6.37 1.57 9.398.473 3.03-1.096 5.277-3.761 6.616-6.69.413 2.636-.396 5.311-2.01 7.435a20.72 20.72 0 0 0 6.972-7.947c-.373-4.423-.978-11.223-1.578-16.486zm-1.272-25.661-.018-.342c-.133-2.522-.258-4.784-.371-6.745-1.155-.271-3.364-.63-5.453-.054-.087 1.462-.213 4.59.061 7.368.028.29.06.572.097.845a9.976 9.976 0 0 0 2.106.35c1.598.078 2.801-.338 3.589-1.228l-.011-.194m-8.444-6.75-4.43.155c.034 1.911.146 5.546.52 7.477.012.067.025.128.037.184 1.097.172 3.224.313 3.937-.965-.22-2.553-.146-5.247-.064-6.851m-10.979 9.962-.427-.22-.179-.447c-.796-1.989-.877-6.234-.858-8.503-1.584.123-3.958.319-7.258.595l.301 4.429c4.664 1.679 3.948 4.841 3.948 4.841-1.359-1.526-4.354-2.344-5.392-2.53l-.992-.176-.433-6.348-5.564.472.347 5.007c4.905 2.047 6.237 5.444 6.237 5.444a96.77 96.77 0 0 1 4.74 2.716l.532.33.07.622c.564 5.078-.138 10.476-1.928 14.811C-76.055-4.424-79.671-1.072-84.345 0c-3.836 3.853-15.106 15.515-18.628 22.939.495 8.995 11.441 21.467 14.618 24.909a150.593 150.593 0 0 1 3.807-3.369 40.947 40.947 0 0 0-7.321-17.064c2.344.608 4.532 2.181 6.227 3.909-.983-5.057-.982-11.071 1.319-15.681 4.893-1.118 8.181-2.714 11.57-5.634A700.275 700.275 0 0 1-69.2 5.405c3.385-4.36 8.019-10.332 8.499-11.611.91-2.43 3.84-14.381 3.84-17.852 0-1.939-2.871-4.893-5.045-6.636-2.464 1.259-4.989-.004-5.108-.065m3.975-9.642-2.859.259c-.023 2.103.048 5.513.51 7.264.621.192 1.78.382 2.765-.405l.03-.027c-.311-2.141-.413-5.285-.446-7.091m-23.397 1.976-2.474.213c-.255 1.355-.091 3.449.146 4.97.9.272 1.825.596 2.753.952zm-8.431 102.536c-.905 7.185 1.158 15.452 5.661 22.684 0 0-8.693-4.647-8.428-20.277-3.52 3.298-5.84 10.307-4.65 15.265a307.703 307.703 0 0 0 2.926 11.223l.111.39-.132.382c-2.3 6.697-.441 10.358-.166 10.844 3.985 4.767 5.966 10.383 6.049 10.621l.076.228-.006.233c-.006.269-.076 6.653 7.178 13.226l.317.287.082.421c.068.35 1.594 8.287 1.516 15.248 6.652 1.839 15.209-2.15 15.298-2.193l.671-.318.611.421c3.087 2.123 7.567 3.475 8.959 3.862 5.362-2.287 14.658-.004 16.621.521 1.963-.525 11.257-2.808 16.621-.521 1.392-.387 5.872-1.739 8.959-3.862l.613-.421.67.318c.089.043 8.628 4.04 15.297 2.193-.077-6.96 1.449-14.898 1.516-15.248l.082-.421.318-.287c7.253-6.572 7.181-12.957 7.174-13.219l-.008-.241.079-.227c.083-.238 2.065-5.852 6.047-10.619.294-.52 2.128-4.177-.165-10.846l-.132-.382.112-.39c.015-.051 1.481-5.193 2.928-11.223 1.19-4.958-1.128-11.965-4.65-15.263.281 5.635-.815 9.884-2.302 12.999 1.148 5.775.433 11.581-1.373 17.221 1.901 1.852 1.769 5.241.213 7.391-1.555 2.15-4.242 3.252-6.886 3.491-2.643.237-5.29-.279-7.893-.793 3.334 3.394 7.378 5.101 12.127 4.812-1.617.315-2.572 2.559-2.951 4.163s-.412 3.324-1.187 4.779c-1.371 2.576-4.748 3.525-7.612 2.966-2.864-.56-5.339-2.292-7.718-3.982.908 2.705 3.948 5.406 6.419 6.834-2.018 1.293-4.825 2.566-7.21 2.328 2.146.665 4.513 1.171 6.855 1.349.787-.315 1.628-.514 2.501-.514 1.008 0 2.056.262 3.098.899l.541.331-1.127 13.829-1.159-.264c-.228-.051-5.64-1.309-11.365-5.044l-2.249-1.466-1.471 2.898c-2.688-1.269-4.942-2.789-6.727-5.166.348 2.545 1.564 5.348 2.932 7.523-5.992-1.831-11.53-6.214-15.136-11.658a42.408 42.408 0 0 1-2.585-1.871c1.254 4.176 3.335 8.282 5.664 11.542 0 0-6.644-2.987-10.458-12.86-5.229 4.53-10.045 6.416-10.279 6.505l-1.751.673v-4.361c-2.618 1.009-7.473 2.61-10.701 2.039l-2.062-.364 2.018-2.693-3.877-.217.765-1.708c.02-.045 1.893-4.282 1.866-8.601-1.753-1.319-2.944-2.601-3.754-3.708-7.516-4.826-13.379-12.231-16.216-20.711 1.822 4.537 6.742 7.542 11.588 8.186-2.091-2.426-3.573-5.432-4.269-8.559 1.235 1.427 3.809.725 4.905-.811.608-.854.901-1.856 1.047-2.902-3.065-8.996-4.657-18.067-1.116-26.729-1.2 8.968 1.19 18.398 6.294 25.869.328-8.928-.08-17.586-2.685-26.131 3.73 3.705 7.599 7.986 9.737 12.789.569-9.12 4.799-17.28 9.485-25.125 4.686-7.844 9.368-16.274 9.273-25.411 3.94 5.165 7.502 13.279 6.808 19.737 1.409-3.531 2.92-6.976 3.006-10.777 4.35 6.992 7.391 15.661 8.337 23.842 3.233-4.903 5.442-11.103 5.233-16.972 3.41 10.156 4.477 21.244 2.177 31.707 4.425-7.454 7.323-15.526 8.613-24.009.076-3.124-.405-7.136-2.366-11.523l-.107-.231c-2.038-4.453-5.3-8.642-9.714-12.486l1.545 11.736s-4.389-7.621-12.915-14.579c-3.393-2.77-6.876-5.634-9.286-9.067-2.398 3.421-5.904 6.287-9.29 9.068-7.87 6.467-12.915 14.576-12.915 14.576l1.545-11.735c-4.416 3.846-7.676 8.034-9.712 12.487l-.038.078c-4.547 10.015-1.361 18.129-1.329 18.21 0 0-5.359-4.27-2.551-15.145a173.988 173.988 0 0 0-6.068 4.935l-.777-.912-.06-.064.835.981a147.094 147.094 0 0 0-6.871 6.224c-2.973 2.884-4.863 6.945-5.464 11.743m86.493 1.278s-.061 9.618-3.677 19.074c5.748-1.742 8.445-11.793 3.677-19.074m-43.367 7.888c-.611-2.726-.106-4.556-.083-4.633l.063-.221.152-.173c.626-.717 1.468-1.132 2.373-1.17a2.94 2.94 0 0 1 .132-.003c.828 0 1.621.327 2.249.928.107.099.195.198.272.289l.104.1.001.005c1.595 1.471 4.137 1.147 4.16 1.144l.145-.021.146.021c.026.004 2.713.335 4.281-1.267a2.9 2.9 0 0 1 .241-.259c.63-.609 1.429-.94 2.262-.94l.133.003c.905.038 1.748.453 2.374 1.17l.152.173.063.221c.021.074.479 1.728.001 4.229l.01.011-.099.434c-.044 1.144-.222 7.937 1.492 12.203.334.614.614 1.276.835 1.981.155.091.412.247.743.467-1.493-5.514-1.702-9.518-1.813-11.659l-.014-.287c-.127-2.408.093-4.315.268-5.848.301-2.602.346-3.551-.794-4.51a3.068 3.068 0 0 0-1.026-.599c-1.238-.397-2.591.386-3.897 1.143-.69.399-1.341.776-2.004 1 0 0 .568-3.037 4.674-4.796-1.55-5.346-6.585-7.592-8.028-8.135-1.446.545-6.479 2.791-8.029 8.135 3.78 1.106 4.676 4.796 4.676 4.796-.662-.224-1.314-.6-2.003-.999-1.309-.756-2.661-1.538-3.898-1.144-.342.11-.688.311-1.029.599-1.14.959-1.094 1.908-.793 4.512.177 1.532.396 3.439.27 5.847l-.015.287c-.11 2.14-.319 6.144-1.814 11.657a15.8 15.8 0 0 1 .742-.466c.221-.705.502-1.368.836-1.982 1.745-4.344 1.523-11.39 1.489-12.243m2.292 13.01a64.739 64.739 0 0 0-.132-2.046 7.584 7.584 0 0 0-1.805 2.195 8.776 8.776 0 0 0-.56 1.238c.597.217 1.485.514 2.564.807a62.17 62.17 0 0 0-.067-2.194m16.486.149a7.566 7.566 0 0 0-1.803-2.195 65.353 65.353 0 0 0-.198 4.241 33.17 33.17 0 0 0 2.562-.808 8.78 8.78 0 0 0-.561-1.238m-17.759-13.285h.012l.999-.231c.1.434.229.87.385 1.305l1.473-4.126a2.305 2.305 0 0 0-.253-.412l-.078-.078-.003-.006a6.338 6.338 0 0 1-.102-.115c-.255-.24-.552-.363-.86-.349a1.232 1.232 0 0 0-.741.301c-.085.5-.22 1.764.178 3.477zm12.777-.989-.388-1.087c-1.671.673-3.34.576-3.84.526-.499.05-2.168.146-3.839-.526l-.387 1.085c.699.279 2.03.642 4.226.642 2.203 0 3.535-.365 4.228-.64m-4.228 2.701c-2.388 0-3.96-.387-4.921-.76l-1.834 5.135c.072.706.35 1.393.818 1.925l.317.307c1.091.925 2.798 1.051 4.003.274.91-.586 1.469-1.647 1.519-2.723.548 1.101 2.037 2.167 3.083 2.228 1.428.083 2.746-.937 3.405-2.207.062-.119.113-.242.166-.364l-1.635-4.576c-.959.373-2.531.761-4.921.761m7.717-5.423a1.232 1.232 0 0 0-.741-.301c-.308-.011-.601.107-.866.354a3.608 3.608 0 0 1-.152.164 2.242 2.242 0 0 0-.279.442l1.474 4.13c.149-.415.272-.831.372-1.245l.002-.012.006-.022.001-.004v-.001l.098.023.47.105.083.015-.651-.153c.406-1.725.268-2.997.183-3.495m-10.076 25.734c-.58.615-.791 1.204-.791 1.204s-1.426-.012-1.649-1.327c-.627-.116-1.016-.081-1.115-.003-.843.894-1.062 2.103-.653 3.592.154.561.373 1.066.566 1.452 2.642-1.227 5.656-1.843 5.798-1.871l.203-.041.204.041c.141.028 3.156.644 5.797 1.872.595-1.174 1.416-3.449-.086-5.043-.102-.079-.491-.116-1.116 0 .021.989-1.646 1.337-1.646 1.337-.001-.006-.212-.596-.797-1.217-.61-.654-1.403-1.097-2.356-1.324-.953.227-1.746.671-2.359 1.328m7.504-6.198c.001-.498.008-1.009.024-1.529-1.383.201-3.616.488-5.169.488-1.553 0-3.787-.287-5.17-.488.016.527.025 1.037.025 1.529 1.814.374 3.542.563 5.145.563 1.604 0 3.33-.189 5.145-.563m25.084 23.751c-.015.005-.071.026-.159.055l.117.038.042-.093m5.426 19.796a9.945 9.945 0 0 0-1.539 1.209l4.451 2.835s-2.615 2.288-6.155 2.698a38.589 38.589 0 0 0 6.688 2.765l.822-10.093c-1.31-.564-2.742-.37-4.267.586m-60.128-5.053 5.047.28-2.123 2.832c3.132-.365 7.101-1.894 8.68-2.606l1.817-.82v4.39a39.235 39.235 0 0 0 10.129-7.463l.923-.948.923.948a39.224 39.224 0 0 0 10.126 7.463l.001-4.389 1.817.819c1.579.712 5.548 2.24 8.68 2.606l-2.125-2.832 5.052-.28c-.669-1.947-1.58-5.288-1.41-8.681l.032-.638.526-.361c.793-.543 2.497-1.857 3.826-3.293-1.599-.088-2.478-.801-2.784-1.107l-.724-.728.546-.869c.047-.076 4.093-6.614 3.194-12.818l-2.254 4.257-.849-3.165c-.577-2.148-1.572-3.616-2.96-4.364-.993-.536-2.051-.627-2.874-.582.046.125.092.251.132.377 1.652 5.141-2.527 11.503-6.152 12.87-4.144 1.562-8.666-4.449-8.666-4.449 1.747.971 5.935 2.749 7.731 2.048 2.296-.892 5.912-5.705 4.635-9.681a8.11 8.11 0 0 0-.552-1.304l-.119-.214a11.245 11.245 0 0 0-1.523-2.079c-1.205-1.325-2.538-2.265-3.241-2.717-.84.317-2.466.881-4.512 1.35a30.26 30.26 0 0 1-5.198.756 6.652 6.652 0 0 1 2.084 1.212c.681-.215 1.416-.375 2.104-.375.756 0 1.451.193 1.945.719 3.235 3.429-.02 8.202-.161 8.403l-.527.759-.812-.442c-2.176-1.187-5.117-1.893-5.911-2.069-.794.176-3.737.882-5.913 2.069l-.812.442-.528-.759c-.139-.202-3.391-4.974-.161-8.403.943-1 2.622-.793 4.052-.343a6.643 6.643 0 0 1 2.085-1.213 30.303 30.303 0 0 1-5.196-.755 35.812 35.812 0 0 1-4.517-1.351c-.703.452-2.035 1.393-3.239 2.718a11.252 11.252 0 0 0-1.523 2.078l-.103.185a8.185 8.185 0 0 0-.568 1.333c-1.277 3.977 2.337 8.789 4.634 9.682 1.727.673 5.659-.9 7.733-2.049 0 0-4.769 5.766-8.667 4.449-3.671-1.239-7.804-7.728-6.152-12.869.04-.127.086-.252.132-.378-.822-.045-1.881.047-2.874.582-1.388.748-2.383 2.216-2.959 4.364l-.85 3.165-2.254-4.258c-.902 6.204 3.146 12.743 3.194 12.818l.55.87-.729.728c-.781.782-1.799 1.063-2.787 1.102 1.329 1.439 3.036 2.754 3.83 3.298l.527.361.032.638c.17 3.393-.742 6.734-1.41 8.681m77.167-63.359c-.601-4.798-2.491-8.859-5.463-11.743a148.84 148.84 0 0 0-6.876-6.229 173.635 173.635 0 0 0-6.064-4.933c.547 2.186 8.245 25.573 6.04 35.252 1.682-3.7 3.201-8.393 3.417-12.452 3.743 12.188-1.8 26.066-1.8 26.066a23.274 23.274 0 0 0 5.321-3.662c4.338-7.139 6.315-15.242 5.425-22.299M4.417-33.242c.237-1.514.402-3.599.149-4.954L.94-38.451c.06 1.559.066 4.047-.34 6.068l-.114.564a43.708 43.708 0 0 1 3.931-1.423m1.482 82.847c.327.31.643.613.953.914 3.252 3.156 5.361 7.498 6.127 12.587 5.813 3.224 8.96 13.044 7.464 19.279a313.974 313.974 0 0 1-2.846 10.942c2.649 8.096-.145 12.556-.267 12.745l-.096.13c-3.316 3.939-5.204 8.689-5.582 9.695-.032 1.432-.585 8.022-7.696 14.645-.326 1.808-1.579 9.212-1.372 15.231l.032.933-.876.321c-3.295 1.208-7.362 1.233-12.088.073a36.607 36.607 0 0 1-5.393-1.781c-4.022 2.539-9.377 3.894-9.614 3.953l-.462.116-.426-.213c-4.05-2.023-12.616-.268-15.575.578l-.355.101-.354-.101c-2.958-.848-11.52-2.605-15.576-.578l-.425.213-.462-.116c-.238-.059-5.593-1.414-9.614-3.953a36.672 36.672 0 0 1-5.394 1.781c-4.727 1.159-8.794 1.135-12.088-.073l-.876-.321.032-.933c.207-6.019-1.046-13.423-1.372-15.231-7.111-6.624-7.666-13.214-7.698-14.645-.378-1.007-2.264-5.756-5.582-9.695l-.097-.131c-.122-.188-2.913-4.647-.265-12.744a315.928 315.928 0 0 1-2.845-10.942c-1.496-6.236 1.651-16.058 7.464-19.28.767-5.089 2.876-9.431 6.128-12.585.31-.303.627-.606.952-.915-3.4-3.657-15.021-16.871-15.316-26.886l-.008-.299.124-.272c3.53-7.765 14.845-19.537 19.547-24.238l.275-.276.383-.076c9.121-1.825 11.438-13.688 10.799-21.175-2.091-1.251-9.826-5.741-15.79-7.367l-.769-.209-.156-.782c-.109-.542-1.026-5.371.079-7.951l.304-.71.768-.066c.067-.006 6.633-.576 12.789-1.093 5.237-.44 8.401-.697 9.952-.809l4.207-.382v-.068l8.15-.284c1.324-.488 2.687-.658 3.928-.658 2.019 0 3.708.438 4.365.636.981-.1 2.419-.212 3.887-.212 1.653 0 3.335.143 4.434.611.872-.274 2.614-.727 4.601-.727 1.166 0 2.413.16 3.615.6l8.149.284v.068l4.208.382 9.071.643a26875.085 26875.085 0 0 0 14.284 1.007l.784.055.31.722c1.107 2.581.188 7.41.079 7.953l-.157.781-.767.209c-5.963 1.626-13.697 6.116-15.787 7.367-.64 7.487 1.676 19.35 10.799 21.175l.381.076.277.276C6.255 2.611 17.57 14.384 21.098 22.148l.123.272-.008.299C20.92 32.734 9.299 45.948 5.899 49.605" style="fill:#230616;fill-opacity:1;fill-rule:nonzero;stroke:none" transform="translate(242.598 152.496)"/><path d="M0 0c3.956.372 5.597-1.134 7.643-3.014.368-.338.741-.68 1.133-1.016-.255-.048-.52-.095-.797-.141l.161-.977.001-.081-.174 1.058c-2.709-.446-4.869-.482-6.25-.105C-.12-3.776-.145-1.37 0 0m27.935-3.014C29.98-1.134 31.623.37 35.577 0a8.69 8.69 0 0 0 .026-1.583c-.192-2.271-1.36-2.588-1.745-2.693-1.378-.377-3.538-.341-6.247.105l-.173-1.055-.001.075.164.98c-.279.046-.545.093-.799.141.391.336.764.678 1.133 1.016M1.175-6.265c.808-.22 1.78-.331 2.908-.331 1.208 0 2.598.128 4.155.381.312.018 4.576.206 6.419-2.426 0 0 1.416 1.474-.041 2.871 1.516.676 3.041 2.193 3.152 5.189l.02.545.02-.545c.112-2.997 1.638-4.513 3.154-5.189-1.376-1.725-.041-2.871-.041-2.871 1.844 2.633 6.109 2.443 6.419 2.426 1.558-.253 2.947-.381 4.155-.381 1.127 0 2.099.111 2.905.331 2.901.79 3.439 3.846 3.265 6.173l.496 2.289c-.518.112-1.04.206-1.552.277-5.659.781-8.187-1.541-10.418-3.591-.908-.835-1.765-1.622-2.822-2.222l.635-1.118v-.004l-.639 1.121a7.833 7.833 0 0 0-.581-.3c-.59.07-2.013.452-2.339 2.495 2.794 2.182 3.903 5.276 3.951 5.416 0 0-3.461-2.028-6.016-3.732l-.592-.396-.593.396c-2.528 1.687-6.016 3.732-6.016 3.732.05-.14 1.157-3.234 3.952-5.417-.323-2.012-1.723-2.414-2.342-2.492a7.908 7.908 0 0 0-.576.298l-.639-1.121v.004l.634 1.119c-1.056.598-1.914 1.387-2.822 2.221C7.154.933 4.627 3.255-1.032 2.474a21.31 21.31 0 0 1-1.552-.277l.497-2.302c-.172-2.326.369-5.372 3.262-6.16" style="fill:#230616;fill-opacity:1;fill-rule:nonzero;stroke:none" transform="translate(182.636 269.185)"/><path d="M0 0a38.668 38.668 0 0 0 6.687-2.765C3.146-3.175.911-5.064.911-5.064l4.073-3.234a9.85 9.85 0 0 0-1.54-1.209c-1.525-.955-2.958-1.151-4.268-.585Zm.655-12.466c2.972 0 5.613 2.263 6.834 3.845l.767.992-4.177 2.087c2.831 1.068 5.939.938 5.975.935l3.809-.191-3.195 2.083C4.94 1.02-.47 2.277-.697 2.329l-1.158.264-1.131-13.829.542-.331c1.043-.638 2.09-.899 3.099-.899" style="fill:#230616;fill-opacity:1;fill-rule:nonzero;stroke:none" transform="translate(161.326 294.526)"/><path d="m0 0 10.429-11.875s38.219-10.667 109.836-10.667c71.616 0 127.299 10.667 127.299 10.667l8.68 11.777-3.637 1.03z" style="fill:#230616;fill-opacity:1;fill-rule:nonzero;stroke:none" transform="translate(71.904 77.285)"/><path d="m0 0-6.071 23.799a9.233 9.233 0 0 1-1.502 3.173l.755-.245-3.786 14.839a9.383 9.383 0 0 1-9.094 7.056 9.173 9.173 0 0 1-1.801-.178c-.929-.186-1.86-.369-2.802-.549a542.833 542.833 0 0 0-12.91-2.345 8.923 8.923 0 0 1-5.04-2.699 9.796 9.796 0 0 1-4.436 1.069c-.475 0-.955-.035-1.425-.106a556.533 556.533 0 0 0-14.821-2.001 9.45 9.45 0 0 1-6.397-3.632 9.486 9.486 0 0 1-1.977-5.81 564.91 564.91 0 0 0-20.843-1.779l-6.484-.431c-.086.003-.17.013-.256.013a8.76 8.76 0 0 1-.456-.012 563.742 563.742 0 0 0-18.701-.685l-.807-.016-1.2-.021a564.276 564.276 0 0 0-22.149.074l-1.119.025-.907.024c-3.465.093-6.943.218-10.337.372l-7.341.332-7.195.511c-3.442.245-6.914.524-10.317.829l-1.343.121-.691.064a558.4 558.4 0 0 0-10.3 1.057l-.637.071-1.409.163a562.26 562.26 0 0 0-10.28 1.285l-1.727.233-1.428.2c-2.244.315-4.49.649-6.727.99a9.432 9.432 0 0 1-1.653 5.883 9.415 9.415 0 0 1-6.219 3.956 553.556 553.556 0 0 0-14.867 2.744 9.563 9.563 0 0 1-1.864.184 9.79 9.79 0 0 1-9.486-7.363L-258.463.374c-.628-2.445-.227-4.979 1.13-7.137 1.424-2.262 3.8-3.871 6.519-4.411a630.864 630.864 0 0 1 14.235-2.643l-.069-.073 9.404-1.496c1.847-.294 3.705-.581 5.565-.859l-.058-.066 7.742-1.04 5.973-.836-.018-.021.8-.09.309-.043-.004.009 6.919-.773 5.72-.663c-.006-.005-.024-.029-.024-.029l1.229-.11 1.13-.131-.015.031 5.397-.484 8.391-.784-.039.074c1.578-.124 3.156-.246 4.723-.358l1.536-.109.002-.009 1.069-.067 4.248-.302-.023-.03 1.235-.056 1.032-.074-.016.028 4.647-.21.783-.041.002.006 1.628-.073a636.11 636.11 0 0 1 4.502-.182l-.049-.07 7.771-.179 8.447-.226-.044.072a638.33 638.33 0 0 1 7.44-.046c1.108 0 2.226.008 3.341.014l-.045-.073 8.703.172 3.279.054v.025c1.032.026 2.056.045 3.094.077l-.039-.067 6.943.306 6.876.264-.005-.011.389.025.728.029-.014.019 6.954.46 6.986.437-.006-.013.483.044.626.039-.013.016 6.254.567 7.527.639-.053.064c1.902.19 3.794.388 5.662.592l9.363 1.023-.06.072c4.948.616 9.938 1.288 14.873 2.022a10.285 10.285 0 0 1 5.898 3.032 9.877 9.877 0 0 1 4.755-1.212c.561 0 1.127.048 1.682.142a625.1 625.1 0 0 1 17.777 3.277c2.605.519 4.881 2.061 6.247 4.232C.217-4.786.603-2.347 0 0" style="fill:#230616;fill-opacity:1;fill-rule:nonzero;stroke:none" transform="translate(329.237 84.048)"/><path d="M0 0c1.562-.28 3.125-.553 4.689-.819 2.51-.428 4.143-2.803 3.645-5.329L7.218-11.76c-.707.595-1.411 1.192-2.114 1.788a4.514 4.514 0 0 1-2.173 1.01 565.054 565.054 0 0 0-9.381 1.68c-1.152.216-2.302-.523-2.57-1.656l-6.957-29.488c-.267-1.131.519-2.243 1.758-2.475 3.356-.63 6.715-1.233 10.078-1.805a5.315 5.315 0 0 1 2.599.206c.949.322 1.896.648 2.84.976L.182-47.136c-.497-2.526-3.173-4.209-5.975-3.731a618.06 618.06 0 0 0-16.685 3.077c-2.713.539-4.404 2.969-3.779 5.399l10.414 40.83c.625 2.432 3.101 3.993 5.532 3.51C-6.878 1.268-3.441.618 0 .002V0" style="fill:#fff;fill-opacity:1;fill-rule:nonzero;stroke:none" transform="translate(101.874 125.568)"/><path d="M0 0a3.406 3.406 0 0 1 .294-1.953C.631-2.667.969-3.38 1.31-4.094c-3.779.438-7.555.909-11.327 1.416.543.603 1.084 1.206 1.623 1.811.464.52.765 1.145.872 1.806l2.844 17.637a523.697 523.697 0 0 0-7.568-2.813l-2.437-13.84a3.401 3.401 0 0 1 .237-1.959c.316-.722.634-1.443.954-2.164-3.77.528-7.537 1.092-11.299 1.69.561.589 1.121 1.179 1.679 1.77.479.51.799 1.127.925 1.786l6.549 34.172a3.631 3.631 0 0 1-.164 1.955c-.271.721-.54 1.442-.808 2.163a567.27 567.27 0 0 1 10.348-1.548 641.265 641.265 0 0 0-1.537-1.812 3.82 3.82 0 0 1-.855-1.803l-2.203-12.517a516.22 516.22 0 0 1 7.454 2.83l1.414 8.772c.107.662.03 1.336-.221 1.951-.292.714-.582 1.428-.869 2.143 3.454-.465 6.912-.897 10.372-1.297a520.54 520.54 0 0 0-1.48-1.849 3.797 3.797 0 0 1-.801-1.823L0 0" style="fill:#fff;fill-opacity:1;fill-rule:nonzero;stroke:none" transform="translate(127.57 74.11)"/><path d="m0 0-4.077-34.477a3.425 3.425 0 0 1 .348-1.952c.355-.705.711-1.409 1.071-2.114-3.785.354-7.569.742-11.348 1.165.525.613 1.048 1.228 1.57 1.843.452.53.736 1.164.825 1.83L-7.012.719a3.653 3.653 0 0 1-.275 1.952 438.25 438.25 0 0 0-.925 2.119c3.462-.388 6.926-.743 10.393-1.066-.474-.627-.95-1.253-1.427-1.878A3.78 3.78 0 0 1 .001-.001L0 0" style="fill:#fff;fill-opacity:1;fill-rule:nonzero;stroke:none" transform="translate(145.139 107.138)"/><path d="M0 0a603.65 603.65 0 0 1 1.778-2.936c-3.797.102-7.592.238-11.387.409.68.931 1.357 1.865 2.031 2.798l.897 17.434a824.717 824.717 0 0 0-8.039-19.98c-1.932.102-3.865.214-5.797.336a820.548 820.548 0 0 0-5.142 20.747l-1.582-17.394a548.007 548.007 0 0 1 1.619-3.012c-3.791.27-7.579.575-11.366.914.731.901 1.46 1.802 2.184 2.705l3.882 36.556a591.627 591.627 0 0 0-1.416 3.024c3.468-.311 6.938-.589 10.409-.836a429.21 429.21 0 0 0-1.297-1.803 810.991 810.991 0 0 1 6.582-27.382A822.728 822.728 0 0 1-6.235 37.976c-.345.645-.688 1.291-1.029 1.937a566.95 566.95 0 0 1 10.429-.374 545.103 545.103 0 0 0-1.83-2.836L0 0" style="fill:#fff;fill-opacity:1;fill-rule:nonzero;stroke:none" transform="translate(181.71 69.074)"/><path d="m0 0 .174-8.632c-.73.404-1.458.811-2.185 1.218a3.46 3.46 0 0 1-1.727.442 570.718 570.718 0 0 0-9.965-.01l-.077-8.289c2.177-.016 4.356-.02 6.534-.012a3.495 3.495 0 0 1 1.748.47c.727.42 1.454.842 2.178 1.266l.13-10.342c-.75.41-1.498.82-2.245 1.232a3.672 3.672 0 0 1-1.781.452 586.1 586.1 0 0 0-6.63.014l-.126-13.438c3.525-.026 7.049-.023 10.574.011a3.784 3.784 0 0 1 1.818.481c.756.426 1.51.854 2.263 1.283l.173-8.63a616.436 616.436 0 0 0-24.401.08c.48.691.956 1.383 1.431 2.075.343.502.531 1.079.546 1.669l.854 34.91a3.248 3.248 0 0 1-.425 1.688c-.404.712-.806 1.423-1.207 2.135A566.214 566.214 0 0 1 0 0" style="fill:#fff;fill-opacity:1;fill-rule:nonzero;stroke:none" transform="translate(209.266 108.49)"/><path d="M0 0c.761.034 1.343.654 1.301 1.384-.11 1.879-.218 3.757-.326 5.636-.042.729-.683 1.291-1.43 1.257-1.799-.08-3.599-.152-5.398-.215l.359-8.282C-3.662-.155-1.831-.082 0 0m12.45-26.66c-3.793-.237-7.587-.44-11.382-.607.414.711.828 1.423 1.239 2.135.313.544.458 1.154.422 1.769L1.852-8.169c-.043.729-.703 1.29-1.473 1.256a650.254 650.254 0 0 0-5.573-.224l.716-16.525a3.208 3.208 0 0 1 .602-1.726c.48-.675.963-1.35 1.448-2.025a609.754 609.754 0 0 0-11.389-.332c.434.701.868 1.402 1.299 2.105.33.535.494 1.142.476 1.757l-.984 34.836a3.417 3.417 0 0 1-.535 1.735c-.434.682-.868 1.365-1.298 2.049 6.291.126 12.581.357 18.866.692 1.913.101 3.577-1.341 3.72-3.239L8.586.409c.144-1.888-3.442-3.63-5.428-3.724 1.977.094 5.783-1.221 5.927-3.103l1.207-16.544a3.227 3.227 0 0 1 .651-1.71c.5-.663 1.002-1.326 1.507-1.988" style="fill:#fff;fill-opacity:1;fill-rule:nonzero;stroke:none" transform="translate(226.15 93.788)"/><path d="m0 0-.668 5.816c-2.245-.21-4.49-.406-6.736-.589l.964-9.619A491.162 491.162 0 0 1 0 0m10.493-24.984a3.344 3.344 0 0 1 .77-1.724c.532-.633 1.067-1.265 1.603-1.896-3.78-.414-7.564-.791-11.35-1.133.371.721.739 1.444 1.105 2.167.292.573.405 1.206.333 1.833L.912-7.951a492.139 492.139 0 0 0-6.555-4.401l1.406-14.015a3.318 3.318 0 0 1 .716-1.741 727.44 727.44 0 0 1 1.546-1.935 618.001 618.001 0 0 0-11.368-.858c.391.712.78 1.425 1.168 2.138.308.567.44 1.197.387 1.826l-2.95 34.694a3.525 3.525 0 0 1-.649 1.753c-.468.654-.934 1.309-1.399 1.966a568.206 568.206 0 0 1 24.003 2.103l-.956-2.173a3.423 3.423 0 0 1-.265-1.832Z" style="fill:#fff;fill-opacity:1;fill-rule:nonzero;stroke:none" transform="translate(254.203 98.175)"/></g><path d="M281.861 122.917a551.98 551.98 0 0 0-14.954-2.018c-2.525-.307-4.292-2.603-3.944-5.152l5.722-41.313c.348-2.549 2.918-4.36 5.735-4.018a618.678 618.678 0 0 1 16.633 2.246c2.811.418 4.688 2.829 4.194 5.358l-7.934 41.014c-.449 2.298-2.503 3.934-4.762 3.934-.228 0-.459-.017-.69-.051m-5.025-41.948c-1.585 10.107-3.173 20.213-4.76 30.321a1.813 1.813 0 0 0 1.574 2.081c1.4.184 2.799.373 4.198.566 1.029.143 2.004-.56 2.182-1.575l5.284-30.247c.179-1.014-.574-1.965-1.678-2.118a574.029 574.029 0 0 0-4.51-.608 2.165 2.165 0 0 0-.288-.019c-.989 0-1.856.672-2.002 1.599" style="fill:url(#d);stroke:none" transform="matrix(1.33333 0 0 -1.33333 -87.309 467.01)"/><path d="M308.718 127.589c-.942-.189-1.886-.374-2.83-.557v.002a552.18 552.18 0 0 0-13.026-2.366c-2.238-.38-3.696-2.499-3.251-4.752l3.57-17.952c.444-2.254 2.734-3.769 5.111-3.366 3.494.592 6.984 1.215 10.471 1.871 1.116.209 2.222-.472 2.472-1.528.948-4.018 1.897-8.036 2.843-12.054.235-.989-.452-1.961-1.537-2.166a637.842 637.842 0 0 0-4.344-.801c-1.191-.215-2.35.498-2.588 1.591-.776 3.568-1.553 7.137-2.331 10.704a545.178 545.178 0 0 0-5.778-4.649c-1.199-.949-1.767-2.431-1.478-3.889l1.936-9.738c.445-2.253 2.833-3.754 5.33-3.331a621.564 621.564 0 0 1 17.638 3.252c2.488.496 4.038 2.722 3.466 4.952l-6.069 23.792c-.573 2.231-2.914 3.647-5.235 3.185a575.667 575.667 0 0 0-10.437-1.982c-1.009-.182-2 .462-2.21 1.435l-1.322 6.071c-.23 1.06.456 2.07 1.53 2.265 3.179.574 6.355 1.177 9.527 1.806a4.73 4.73 0 0 0 2.407-.156 552.74 552.74 0 0 1 2.749-.901l-1.541 6.045c-.503 1.956-2.309 3.298-4.252 3.297-.272 0-.547-.026-.821-.08" style="fill:url(#e);stroke:none" transform="matrix(1.33333 0 0 -1.33333 -87.309 467.01)"/><path d="m78.535 86.524-.981-3.846a2.095 2.095 0 0 1 .274-1.665c.404-.642 1.118-1.106 1.959-1.273a620.486 620.486 0 0 1 16.63-3.067c.205-.035.413-.053.619-.053 1.497 0 2.812.946 3.062 2.219l.438 2.201a7.295 7.295 0 0 0-1.91-.253 7.52 7.52 0 0 0-1.228.103 610.825 610.825 0 0 0-10.112 1.811c-1.157.217-2.177.89-2.798 1.846a3.899 3.899 0 0 0-.605 2.536c-2.007-.19-3.779-.377-5.348-.559" style="fill:url(#f);stroke:none" transform="matrix(1.33333 0 0 -1.33333 -87.309 467.01)"/><path d="m124.379 89.345-2.357-14.614a5.489 5.489 0 0 0-.62-1.788c1.418-.183 2.844-.36 4.27-.533a5.378 5.378 0 0 0-.082 1.988l2.196 15.051c-1.159-.034-2.293-.069-3.407-.104" style="fill:url(#g);stroke:none" transform="matrix(1.33333 0 0 -1.33333 -87.309 467.01)"/><path d="m109.647 88.775-2.299-11.997a5.512 5.512 0 0 0-.669-1.762c1.419-.218 2.842-.431 4.263-.638a5.379 5.379 0 0 0-.024 2l2.208 12.551c-1.19-.05-2.348-.102-3.479-.154" style="fill:url(#h);stroke:none" transform="matrix(1.33333 0 0 -1.33333 -87.309 467.01)"/><path d="m137.72 89.709-2.21-16.541a5.523 5.523 0 0 0-.574-1.811c1.425-.151 2.85-.297 4.271-.438a5.433 5.433 0 0 0-.132 1.977l1.998 16.886c-1.133-.023-2.253-.048-3.353-.073" style="fill:url(#i);stroke:none" transform="matrix(1.33333 0 0 -1.33333 -87.309 467.01)"/><path d="m150.92 89.963-2.089-19.66-.194-.244c1.319-.111 2.643-.217 3.963-.319l-.178.334 1.636 17.989.123 1.947-3.261-.047" style="fill:url(#j);stroke:none" transform="matrix(1.33333 0 0 -1.33333 -87.309 467.01)"/><path d="m177.129 90.223-.104-3.546-.928-18.022-.191-.267c1.319-.05 2.643-.098 3.967-.141l-.184.306.789 21.686a1204.03 1204.03 0 0 1-3.349-.016" style="fill:url(#k);stroke:none" transform="matrix(1.33333 0 0 -1.33333 -87.309 467.01)"/><path d="M171.092 90.188a817.04 817.04 0 0 0-4.179-10.299l-2.287-5.52-1.496 5.784a784.327 784.327 0 0 0-2.498 9.94l-3.148-.038c1.919-7.772 4.217-16.929 5.278-21.013a580.01 580.01 0 0 1 2.925-.17c1.778 4.281 5.559 13.825 8.508 21.336-1.039-.006-2.084-.012-3.103-.02" style="fill:url(#l);stroke:none" transform="matrix(1.33333 0 0 -1.33333 -87.309 467.01)"/><path d="m190.199 90.26-.502-20.48a5.029 5.029 0 0 0-.368-1.767c3.536-.061 7.093-.092 10.614-.092 2.698 0 5.427.018 8.139.053l-.068 3.321a5.811 5.811 0 0 0-2.127-.424 614.868 614.868 0 0 0-10.608-.01l-2.003.014.163 17.438 1.996-.015c1.517-.012 3.034-.018 4.55-.018l2.077.005c.675 0 1.344-.121 1.972-.353l-.03 2.306c-3.834.015-7.765.024-11.824.024l-1.981-.002" style="fill:url(#m);stroke:none" transform="matrix(1.33333 0 0 -1.33333 -87.309 467.01)"/><path d="M216.107 69.959a5.142 5.142 0 0 0-.285-1.836c1.414.036 2.835.078 4.258.124a5.167 5.167 0 0 0-.406 1.792l-.804 18.539 2.014.072c1.852.066 3.705.14 5.556.223l.155.004c1.807 0 3.301-1.381 3.403-3.143l.878-15.195a5.143 5.143 0 0 0-.234-1.855c1.419.071 2.84.146 4.258.227a5.196 5.196 0 0 0-.454 1.77l-1.198 16.43c-.37.513-2.301 1.366-3.734 1.366l-.111-.002-1.951 1.543c-4.411.061-7.131.111-11.916.15z" style="fill:url(#n);stroke:none" transform="matrix(1.33333 0 0 -1.33333 -87.309 467.01)"/><path d="M244.408 71.407a5.207 5.207 0 0 0-.189-1.897c1.42.102 2.842.209 4.261.322a5.219 5.219 0 0 0-.504 1.777l-1.525 15.218 1.009.666c1.061.701 2.106 1.414 3.158 2.12-2.515.063-5.106.121-7.773.175z" style="fill:url(#o);stroke:none" transform="matrix(1.33333 0 0 -1.33333 -87.309 467.01)"/><path d="M259.145 72.667a5.2 5.2 0 0 0-.136-1.914c1.424.137 2.845.28 4.257.424a5.31 5.31 0 0 0-.552 1.755l-2.135 16.407-3.36.099z" style="fill:url(#p);stroke:none" transform="matrix(1.33333 0 0 -1.33333 -87.309 467.01)"/><path d="M270.666 74.705c.182-1.329 1.502-2.33 3.071-2.33.146 0 .293.008.443.026 5.5.667 11.077 1.421 16.579 2.24.889.132 1.665.585 2.13 1.242.263.373.546.98.394 1.757l-2.009 10.386c-1.607.093-3.278.184-5.009.274l1.019-5.838a3.703 3.703 0 0 0-.665-2.846 4.046 4.046 0 0 0-2.708-1.6 577.353 577.353 0 0 0-4.523-.61 4.264 4.264 0 0 0-.549-.036h-.001c-1.974 0-3.685 1.414-3.977 3.289l-1.291 8.222c-1.59.063-3.218.125-4.893.187z" style="fill:url(#q);stroke:none" transform="matrix(1.33333 0 0 -1.33333 -87.309 467.01)"/><path d="M299.921 78.326c.2-1.02 1.285-1.789 2.52-1.789.171 0 .343.015.513.043a616.097 616.097 0 0 1 17.58 3.242c.727.145 1.342.544 1.689 1.093.191.305.386.794.232 1.403l-.811 3.177c-1.584.197-3.426.407-5.555.627a3.68 3.68 0 0 0-.566-1.64 4 4 0 0 0-2.612-1.726 585.773 585.773 0 0 0-4.359-.804 4.37 4.37 0 0 0-.781-.07c-1.982 0-3.712 1.347-4.116 3.203l-.47 2.163c-1.614.12-3.316.24-5.109.358z" style="fill:url(#r);stroke:none" transform="matrix(1.33333 0 0 -1.33333 -87.309 467.01)"/></svg>